<svg xmlns="http://www.w3.org/2000/svg" xmlns:xlink="http://www.w3.org/1999/xlink" width="375" height="812" viewBox="0 0 375 812">
  <defs>
    <clipPath id="clip-iPhone_X_XS_11_Pro_6">
      <rect width="375" height="812"/>
    </clipPath>
  </defs>
  <g id="iPhone_X_XS_11_Pro_6" data-name="iPhone X, XS, 11 Pro – 6" clip-path="url(#clip-iPhone_X_XS_11_Pro_6)">
    <rect width="375" height="812" fill="#f1f0f2"/>
    <g id="Group_131" data-name="Group 131">
      <g id="Group_11" data-name="Group 11" transform="translate(3 3.41)">
        <rect id="Rectangle_10" data-name="Rectangle 10" width="322" height="705" rx="18" transform="translate(24 20.59)" fill="#fff"/>
      </g>
      <g id="money" transform="translate(265 621.059)">
        <path id="Path_939" data-name="Path 939" d="M195.031,131.37a1.754,1.754,0,0,0,3.508,0,6.468,6.468,0,0,0-2.756-5.124,9.638,9.638,0,0,0-4.259-1.752V122.6a1.754,1.754,0,0,0-3.508,0v1.894a9.638,9.638,0,0,0-4.259,1.752,6.14,6.14,0,0,0,0,10.247,9.638,9.638,0,0,0,4.259,1.752v6.946c-2.02-.494-3.508-1.8-3.508-3.3a1.754,1.754,0,0,0-3.508,0,6.469,6.469,0,0,0,2.756,5.124,9.639,9.639,0,0,0,4.259,1.752v1.912a1.754,1.754,0,1,0,3.508,0v-1.912a9.638,9.638,0,0,0,4.259-1.752,6.14,6.14,0,0,0,0-10.247,9.638,9.638,0,0,0-4.259-1.752v-6.946C193.543,128.565,195.031,129.876,195.031,131.37Zm-10.523,0c0-1.494,1.487-2.8,3.508-3.3v6.6C185.995,134.175,184.508,132.864,184.508,131.37Zm10.523,10.523c0,1.494-1.487,2.8-3.508,3.3v-6.6C193.543,139.088,195.031,140.4,195.031,141.893Z" transform="translate(-169.173 -116.948)" fill="#fff"/>
      </g>
      <path id="Path_940" data-name="Path 940" d="M17.463,5.537a1.833,1.833,0,0,1,0,2.592l-6.037,6.037L17.463,20.2A1.833,1.833,0,1,1,14.87,22.8L7.537,15.463a1.833,1.833,0,0,1,0-2.592l7.334-7.334a1.833,1.833,0,0,1,2.592,0Z" transform="translate(32 757.333)" fill="#0b4870" fill-rule="evenodd"/>
      <text id="Back" transform="translate(64 779)" fill="#0b4870" font-size="20" font-family="GoogleSans-Bold, Google Sans" font-weight="700"><tspan x="0" y="0">Back</tspan></text>
      <text id="Help_Vault" data-name="Help Vault" transform="translate(58 49)" fill="#0b4870" font-size="32" font-family="GoogleSans-Bold, Google Sans" font-weight="700"><tspan x="0" y="31">Help Vault</tspan></text>
      <text id="Description" transform="translate(58 138)" fill="#0b4870" font-size="18" font-family="GoogleSans-Bold, Google Sans" font-weight="700"><tspan x="0" y="0">Description</tspan></text>
      <g id="Group_23" data-name="Group 23" transform="translate(22 45.387)">
        <g id="Group_2" data-name="Group 2" transform="translate(36 619.234)">
          <g id="Rectangle_1" data-name="Rectangle 1" transform="translate(0 0.379)" fill="#0b4870" stroke="rgba(30,54,106,0.6)" stroke-width="2">
            <rect width="260" height="36" rx="8" stroke="none"/>
            <rect x="1" y="1" width="258" height="34" rx="7" fill="none"/>
          </g>
        </g>
      </g>
      <text id="Volunteer" transform="translate(152 687)" fill="#fff" font-size="16" font-family="GoogleSans-Bold, Google Sans" font-weight="700"><tspan x="0" y="0">Volunteer</tspan></text>
      <text id="Lorem_Ipsum_loda_lassun_is_simply_dummy_text_of_the_printing_and_typesetting_industry._Lorem_Ipsum_has_been_the_industry_s_standard_dummy_text_ever_since_the_1500s_when_an_unknown_printer_took_a_galley_of_type_and_scrambled_it_to_make_a_type_specimen_book" data-name="Lorem Ipsum loda lassun is simply dummy text of the printing and typesetting industry. Lorem Ipsum has been the industry&apos;s standard dummy text ever since the 1500s, when an unknown printer took a galley of type and scrambled it to make a type specimen book" transform="translate(59 152)" fill="#0b4870" font-size="14" font-family="GoogleSans-Regular, Google Sans"><tspan x="0" y="13">Lorem Ipsum loda lassun is simply </tspan><tspan x="0" y="33">dummy text of the printing and </tspan><tspan x="0" y="53">typesetting industry. Lorem Ipsum has </tspan><tspan x="0" y="73">been the industry&apos;s standard dummy text </tspan><tspan x="0" y="93">ever since the 1500s, when an unknown </tspan><tspan x="0" y="113">printer took a galley of type and </tspan><tspan x="0" y="133">scrambled it to make a type specimen </tspan><tspan x="0" y="153">book an deliver it.</tspan></text>
      <text id="Volunteers_required_2_5" data-name="Volunteers required             2/5" transform="translate(60 353)" fill="#0b4870" font-size="18" font-family="GoogleSans-Bold, Google Sans" font-weight="700"><tspan x="0" y="0" xml:space="preserve">Volunteers required             2/5</tspan></text>
      <text id="Volunteer_more_to_earn_credits_which_can_be_exchanged_for_exclusive_stuff" data-name="Volunteer more to earn credits which 
can be exchanged for exclusive stuff" transform="translate(60 398)" fill="#0b4870" font-size="14" font-family="GoogleSans-Bold, Google Sans" font-weight="700" opacity="0.3"><tspan x="0" y="0">Volunteer more to earn credits which </tspan><tspan x="0" y="17">can be exchanged for exclusive stuff</tspan></text>
      <path id="Path_941" data-name="Path 941" d="M36.786,13.861A25,25,0,0,0,51.013,7.967a25,25,0,0,1,32.415,0,25,25,0,0,0,14.226,5.894,25,25,0,0,1,22.925,22.925,24.96,24.96,0,0,0,5.894,14.226,25,25,0,0,1,0,32.415,25,25,0,0,0-5.894,14.226,25,25,0,0,1-22.925,22.925,25,25,0,0,0-14.226,5.894,25,25,0,0,1-32.415,0,25,25,0,0,0-14.226-5.894A25,25,0,0,1,13.861,97.654,25,25,0,0,0,7.967,83.427a25,25,0,0,1,0-32.415,25,25,0,0,0,5.894-14.226A25,25,0,0,1,36.786,13.861ZM97.442,56.679A8.152,8.152,0,1,0,85.913,45.15L59.067,72,48.526,61.456A8.152,8.152,0,1,0,37,72.985L53.3,89.289a8.153,8.153,0,0,0,11.528,0l32.61-32.61Z" transform="translate(120 472)" fill="#128c7e" fill-rule="evenodd"/>
    </g>
  </g>
</svg>
