<svg xmlns="http://www.w3.org/2000/svg" xmlns:xlink="http://www.w3.org/1999/xlink" width="375" height="812" viewBox="0 0 375 812">
  <defs>
    <clipPath id="clip-path">
      <rect width="290" height="358" fill="none"/>
    </clipPath>
    <clipPath id="clip-iPhone_X_XS_11_Pro_2">
      <rect width="375" height="812"/>
    </clipPath>
  </defs>
  <g id="iPhone_X_XS_11_Pro_2" data-name="iPhone X, XS, 11 Pro – 2" clip-path="url(#clip-iPhone_X_XS_11_Pro_2)">
    <rect width="375" height="812" fill="#f5f5f5"/>
    <g id="Group_127" data-name="Group 127">
      <line id="Line_1" data-name="Line 1" x2="375" transform="translate(0.5 748.5)" fill="none" stroke="#0b4870" stroke-width="2" opacity="0.7"/>
      <path id="Path_760" data-name="Path 760" d="M13.771,2.4a1.352,1.352,0,0,0-1.912,0L2.4,11.859a1.352,1.352,0,1,0,1.912,1.912l.4-.4v8.9A1.352,1.352,0,0,0,6.056,23.63h2.7a1.352,1.352,0,0,0,1.352-1.352v-2.7a1.352,1.352,0,0,1,1.352-1.352h2.7a1.352,1.352,0,0,1,1.352,1.352v2.7a1.352,1.352,0,0,0,1.352,1.352h2.7a1.352,1.352,0,0,0,1.352-1.352v-8.9l.4.4a1.352,1.352,0,1,0,1.912-1.912L13.771,2.4Z" transform="translate(74.37 768)" fill="#0b4870"/>
      <g id="Group_8" data-name="Group 8" transform="translate(173.336 768.815)">
        <path id="Path_761" data-name="Path 761" d="M9.353,2a1.353,1.353,0,0,0,0,2.707H12.06A1.353,1.353,0,0,0,12.06,2Z" transform="translate(3.02)" fill="#0b4870"/>
        <path id="Path_762" data-name="Path 762" d="M4,5.728A3.019,3.019,0,0,1,7.242,3c0,2.26,2.177,4.092,4.863,4.092h3.242C18.033,7.092,20.21,5.26,20.21,3a3.019,3.019,0,0,1,3.242,2.728V20.734a3.019,3.019,0,0,1-3.242,2.728H7.242A3.019,3.019,0,0,1,4,20.734Zm4.863,5.456a1.509,1.509,0,0,0-1.621,1.364,1.509,1.509,0,0,0,1.621,1.364h.016A1.509,1.509,0,0,0,10.5,12.549a1.509,1.509,0,0,0-1.621-1.364Zm4.863,0a1.509,1.509,0,0,0-1.621,1.364,1.509,1.509,0,0,0,1.621,1.364h4.863a1.509,1.509,0,0,0,1.621-1.364,1.509,1.509,0,0,0-1.621-1.364ZM8.863,16.641a1.509,1.509,0,0,0-1.621,1.364,1.509,1.509,0,0,0,1.621,1.364h.016A1.509,1.509,0,0,0,10.5,18.005a1.509,1.509,0,0,0-1.621-1.364Zm4.863,0a1.509,1.509,0,0,0-1.621,1.364,1.509,1.509,0,0,0,1.621,1.364h4.863a1.509,1.509,0,0,0,1.621-1.364,1.509,1.509,0,0,0-1.621-1.364Z" transform="translate(0 0.353)" fill="#0b4870" fill-rule="evenodd"/>
      </g>
      <rect id="Rectangle_9" data-name="Rectangle 9" width="68" height="37" rx="18" transform="translate(52 763)" fill="rgba(127,155,203,0.3)"/>
      <g id="Group_11" data-name="Group 11" transform="translate(-4.994 -4)">
        <text id="Hi_Help_Vault_Welcome_back" data-name="Hi Help Vault
Welcome back" transform="translate(47.994 33)" fill="#0b4870" font-size="18" font-family="GoogleSans-Bold, Google Sans" font-weight="700"><tspan x="0" y="17">Hi Help Vault</tspan><tspan font-size="30"><tspan x="0" y="50">Welcome back</tspan></tspan></text>
        <rect id="Rectangle_10" data-name="Rectangle 10" width="337" height="623" rx="18" transform="translate(23.994 107)" fill="#fff"/>
      </g>
      <text id="Active_volunteers_nearby" data-name="Active volunteers nearby" transform="translate(43 137)" fill="#0b4870" font-size="16" font-family="GoogleSans-Bold, Google Sans" font-weight="700"><tspan x="0" y="0">Active volunteers nearby</tspan></text>
      <text id="_478" data-name="478" transform="translate(43 184)" fill="#0b4870" font-size="36" font-family="GoogleSans-Bold, Google Sans" font-weight="700"><tspan x="0" y="0">478</tspan></text>
      <rect id="Rectangle_11" data-name="Rectangle 11" width="290" height="71" rx="10" transform="translate(43 214)" fill="#0e538c"/>
      <text id="Emergency" transform="translate(61 247)" fill="#fff" font-size="24" font-family="GoogleSans-Bold, Google Sans" font-weight="700"><tspan x="0" y="0">Emergency</tspan></text>
      <path id="Path_765" data-name="Path 765" d="M7.686,6.686A16,16,0,1,1,30.313,29.313L19,40.627,7.686,29.313a16,16,0,0,1,0-22.627ZM19,22.571A4.571,4.571,0,1,0,14.429,18,4.571,4.571,0,0,0,19,22.571Z" transform="translate(274 228)" fill="#fff" fill-rule="evenodd"/>
      <rect id="Rectangle_12" data-name="Rectangle 12" width="3" height="47" rx="1.5" transform="translate(231 227)" fill="#fff"/>
      <text id="Click_to_share_location" data-name="Click to share location" transform="translate(61 267)" fill="#fff" font-size="12" font-family="GoogleSans-Bold, Google Sans" font-weight="700"><tspan x="0" y="0">Click to share location</tspan></text>
      <g id="Repeat_Grid_1" data-name="Repeat Grid 1" transform="translate(43 355)" clip-path="url(#clip-path)">
        <g id="Group_125" data-name="Group 125" transform="translate(-43 -630)">
          <g id="Group_124" data-name="Group 124">
            <rect id="Rectangle_16" data-name="Rectangle 16" width="290" height="71" rx="10" transform="translate(43 630)" fill="rgba(225,233,249,0.53)"/>
          </g>
          <text id="Help_Vault" data-name="Help Vault" transform="translate(63 662)" fill="#0b4870" font-size="22" font-family="GoogleSans-Bold, Google Sans" font-weight="700"><tspan x="0" y="0">Help Vault</tspan></text>
          <text id="Description" transform="translate(64 680)" fill="#0b4870" font-size="14" font-family="GoogleSans-Bold, Google Sans" font-weight="700"><tspan x="0" y="0">Description</tspan></text>
          <path id="Path_769" data-name="Path 769" d="M7.659,26.841a2.25,2.25,0,0,1,0-3.182l7.409-7.409L7.659,8.841a2.25,2.25,0,1,1,3.182-3.182l9,9a2.25,2.25,0,0,1,0,3.182l-9,9a2.25,2.25,0,0,1-3.182,0Z" transform="translate(290 649.5)" fill="#0b4870" fill-rule="evenodd" opacity="0.89"/>
        </g>
        <g id="Group_125-2" data-name="Group 125" transform="translate(-43 -539)">
          <g id="Group_124-2" data-name="Group 124">
            <rect id="Rectangle_16-2" data-name="Rectangle 16" width="290" height="71" rx="10" transform="translate(43 630)" fill="rgba(225,233,249,0.53)"/>
          </g>
          <text id="Help_Vault-2" data-name="Help Vault" transform="translate(63 662)" fill="#0b4870" font-size="22" font-family="GoogleSans-Bold, Google Sans" font-weight="700"><tspan x="0" y="0">Help Vault</tspan></text>
          <text id="Description-2" data-name="Description" transform="translate(64 680)" fill="#0b4870" font-size="14" font-family="GoogleSans-Bold, Google Sans" font-weight="700"><tspan x="0" y="0">Description</tspan></text>
          <path id="Path_769-2" data-name="Path 769" d="M7.659,26.841a2.25,2.25,0,0,1,0-3.182l7.409-7.409L7.659,8.841a2.25,2.25,0,1,1,3.182-3.182l9,9a2.25,2.25,0,0,1,0,3.182l-9,9a2.25,2.25,0,0,1-3.182,0Z" transform="translate(290 649.5)" fill="#0b4870" fill-rule="evenodd" opacity="0.89"/>
        </g>
        <g id="Group_125-3" data-name="Group 125" transform="translate(-43 -448)">
          <g id="Group_124-3" data-name="Group 124">
            <rect id="Rectangle_16-3" data-name="Rectangle 16" width="290" height="71" rx="10" transform="translate(43 630)" fill="rgba(225,233,249,0.53)"/>
          </g>
          <text id="Help_Vault-3" data-name="Help Vault" transform="translate(63 662)" fill="#0b4870" font-size="22" font-family="GoogleSans-Bold, Google Sans" font-weight="700"><tspan x="0" y="0">Help Vault</tspan></text>
          <text id="Description-3" data-name="Description" transform="translate(64 680)" fill="#0b4870" font-size="14" font-family="GoogleSans-Bold, Google Sans" font-weight="700"><tspan x="0" y="0">Description</tspan></text>
          <path id="Path_769-3" data-name="Path 769" d="M7.659,26.841a2.25,2.25,0,0,1,0-3.182l7.409-7.409L7.659,8.841a2.25,2.25,0,1,1,3.182-3.182l9,9a2.25,2.25,0,0,1,0,3.182l-9,9a2.25,2.25,0,0,1-3.182,0Z" transform="translate(290 649.5)" fill="#0b4870" fill-rule="evenodd" opacity="0.89"/>
        </g>
        <g id="Group_125-4" data-name="Group 125" transform="translate(-43 -357)">
          <g id="Group_124-4" data-name="Group 124">
            <rect id="Rectangle_16-4" data-name="Rectangle 16" width="290" height="71" rx="10" transform="translate(43 630)" fill="rgba(225,233,249,0.53)"/>
          </g>
          <text id="Help_Vault-4" data-name="Help Vault" transform="translate(63 662)" fill="#0b4870" font-size="22" font-family="GoogleSans-Bold, Google Sans" font-weight="700"><tspan x="0" y="0">Help Vault</tspan></text>
          <text id="Description-4" data-name="Description" transform="translate(64 680)" fill="#0b4870" font-size="14" font-family="GoogleSans-Bold, Google Sans" font-weight="700"><tspan x="0" y="0">Description</tspan></text>
          <path id="Path_769-4" data-name="Path 769" d="M7.659,26.841a2.25,2.25,0,0,1,0-3.182l7.409-7.409L7.659,8.841a2.25,2.25,0,1,1,3.182-3.182l9,9a2.25,2.25,0,0,1,0,3.182l-9,9a2.25,2.25,0,0,1-3.182,0Z" transform="translate(290 649.5)" fill="#0b4870" fill-rule="evenodd" opacity="0.89"/>
        </g>
      </g>
      <text id="Calls_for_Help_4" data-name="Calls for Help                                 4" transform="translate(63 326)" fill="#0b4870" font-size="16" font-family="GoogleSans-Bold, Google Sans" font-weight="700"><tspan x="0" y="0" xml:space="preserve">Calls for Help                                 4</tspan></text>
      <path id="Path_770" data-name="Path 770" d="M23.63,12.815A10.815,10.815,0,1,1,12.815,2,10.815,10.815,0,0,1,23.63,12.815ZM15.519,8.759a2.7,2.7,0,1,1-2.7-2.7A2.7,2.7,0,0,1,15.519,8.759Zm-2.7,5.408A6.76,6.76,0,0,0,6.669,18.11a8.113,8.113,0,0,0,12.292,0A6.759,6.759,0,0,0,12.815,14.167Z" transform="translate(268 768)" fill="#0b4870" fill-rule="evenodd"/>
    </g>
  </g>
</svg>
