<svg xmlns="http://www.w3.org/2000/svg" xmlns:xlink="http://www.w3.org/1999/xlink" width="375" height="812" viewBox="0 0 375 812">
  <defs>
    <clipPath id="clip-iPhone_X_XS_11_Pro_5">
      <rect width="375" height="812"/>
    </clipPath>
  </defs>
  <g id="iPhone_X_XS_11_Pro_5" data-name="iPhone X, XS, 11 Pro – 5" clip-path="url(#clip-iPhone_X_XS_11_Pro_5)">
    <rect width="375" height="812" fill="#f1f0f2"/>
    <g id="Group_130" data-name="Group 130">
      <g id="Group_11" data-name="Group 11" transform="translate(3 3.41)">
        <rect id="Rectangle_10" data-name="Rectangle 10" width="322" height="705" rx="18" transform="translate(24 20.59)" fill="#fff"/>
      </g>
      <g id="money" transform="translate(265 621.059)">
        <path id="Path_939" data-name="Path 939" d="M195.031,131.37a1.754,1.754,0,0,0,3.508,0,6.468,6.468,0,0,0-2.756-5.124,9.638,9.638,0,0,0-4.259-1.752V122.6a1.754,1.754,0,0,0-3.508,0v1.894a9.638,9.638,0,0,0-4.259,1.752,6.14,6.14,0,0,0,0,10.247,9.638,9.638,0,0,0,4.259,1.752v6.946c-2.02-.494-3.508-1.8-3.508-3.3a1.754,1.754,0,0,0-3.508,0,6.469,6.469,0,0,0,2.756,5.124,9.639,9.639,0,0,0,4.259,1.752v1.912a1.754,1.754,0,1,0,3.508,0v-1.912a9.638,9.638,0,0,0,4.259-1.752,6.14,6.14,0,0,0,0-10.247,9.638,9.638,0,0,0-4.259-1.752v-6.946C193.543,128.565,195.031,129.876,195.031,131.37Zm-10.523,0c0-1.494,1.487-2.8,3.508-3.3v6.6C185.995,134.175,184.508,132.864,184.508,131.37Zm10.523,10.523c0,1.494-1.487,2.8-3.508,3.3v-6.6C193.543,139.088,195.031,140.4,195.031,141.893Z" transform="translate(-169.173 -116.948)" fill="#fff"/>
      </g>
      <path id="Path_940" data-name="Path 940" d="M17.463,5.537a1.833,1.833,0,0,1,0,2.592l-6.037,6.037L17.463,20.2A1.833,1.833,0,1,1,14.87,22.8L7.537,15.463a1.833,1.833,0,0,1,0-2.592l7.334-7.334a1.833,1.833,0,0,1,2.592,0Z" transform="translate(32 757.333)" fill="#0b4870" fill-rule="evenodd"/>
      <text id="Back" transform="translate(64 779)" fill="#0b4870" font-size="20" font-family="GoogleSans-Bold, Google Sans" font-weight="700"><tspan x="0" y="0">Back</tspan></text>
      <text id="Get_Volunteers" data-name="Get Volunteers" transform="translate(58 49)" fill="#0b4870" font-size="32" font-family="GoogleSans-Bold, Google Sans" font-weight="700"><tspan x="0" y="31">Get Volunteers</tspan></text>
      <text id="Give_a_brief_description_" data-name="Give a brief description " transform="translate(58 103)" fill="#0b4870" font-size="14" font-family="GoogleSans-Bold, Google Sans" font-weight="700" opacity="0.5"><tspan x="0" y="0">Give a brief description </tspan></text>
      <text id="Description" transform="translate(58 157)" fill="#0b4870" font-size="18" font-family="GoogleSans-Bold, Google Sans" font-weight="700"><tspan x="0" y="0">Description</tspan></text>
      <g id="Group_21" data-name="Group 21" transform="translate(22 -451.234)" opacity="0.25">
        <g id="Group_2" data-name="Group 2" transform="translate(36 619.234)">
          <g id="Rectangle_1" data-name="Rectangle 1" transform="translate(0 0)" fill="#fff" stroke="#0b4870" stroke-width="2">
            <rect width="260" height="109" rx="8" stroke="none"/>
            <rect x="1" y="1" width="258" height="107" rx="7" fill="none"/>
          </g>
        </g>
      </g>
      <text id="Describe_about_your_problem" data-name="Describe about your problem" transform="translate(71 188)" fill="#0b4870" font-size="14" font-family="GoogleSans-Bold, Google Sans" font-weight="700" opacity="0.3"><tspan x="0" y="0">Describe about your problem</tspan></text>
      <text id="Volunteers_you_need" data-name="Volunteers you need" transform="translate(58 320)" fill="#1e366a" font-size="18" font-family="GoogleSans-Bold, Google Sans" font-weight="700"><tspan x="0" y="0">Volunteers you need</tspan></text>
      <g id="Group_22" data-name="Group 22" transform="translate(22 -288.234)" opacity="0.25">
        <g id="Group_2-2" data-name="Group 2" transform="translate(36 619.234)">
          <g id="Rectangle_1-2" data-name="Rectangle 1" transform="translate(0 0)" fill="#fff" stroke="#0b4870" stroke-width="2">
            <rect width="260" height="55" rx="8" stroke="none"/>
            <rect x="1" y="1" width="258" height="53" rx="7" fill="none"/>
          </g>
        </g>
      </g>
      <text id="Enter_number_of_persons_you_need_for_your_help" data-name="Enter number of persons you
need for your help" transform="translate(71 353)" fill="#0b4870" font-size="14" font-family="GoogleSans-Bold, Google Sans" font-weight="700" opacity="0.3"><tspan x="0" y="0">Enter number of persons you</tspan><tspan x="0" y="17">need for your help</tspan></text>
      <g id="Group_23" data-name="Group 23" transform="translate(22 45.387)">
        <g id="Group_2-3" data-name="Group 2" transform="translate(36 619.234)">
          <g id="Rectangle_1-3" data-name="Rectangle 1" transform="translate(0 0.379)" fill="#0b4870" stroke="rgba(30,54,106,0.6)" stroke-width="2">
            <rect width="260" height="36" rx="8" stroke="none"/>
            <rect x="1" y="1" width="258" height="34" rx="7" fill="none"/>
          </g>
        </g>
      </g>
      <text id="Submit" transform="translate(161 687)" fill="#fff" font-size="16" font-family="GoogleSans-Bold, Google Sans" font-weight="700"><tspan x="0" y="0">Submit</tspan></text>
      <g id="Men_8" transform="translate(150.633 478.785)" opacity="0.92">
        <ellipse id="Ellipse_2" data-name="Ellipse 2" cx="25.123" cy="14.505" rx="25.123" ry="14.505" transform="translate(7.35 122.834)" fill="#d6d8e5" opacity="0.4"/>
        <path id="Path_28" data-name="Path 28" d="M375.917,286c-1.748,1.451-4.352.123-4.453.254a77.306,77.306,0,0,1-6.448,5.367c-1.088.856-2.785,2-2.48,3.626.551,2.945,5.265,2.038,7.042,1.139s3.227-2.393,4.91-3.438c1.2-.725,2.386-1.131,2.575-2.647C377.187,289.4,376.244,285.956,375.917,286Z" transform="translate(-329.628 -152.367)" fill="#38226d"/>
        <path id="Path_29" data-name="Path 29" d="M377.079,291.11c-.225,1.451-1.393,1.849-2.582,2.589-1.712,1.059-3.22,2.6-5,3.5-1.639.827-5.737,1.654-6.89-.45.624,2.843,5.251,1.951,7.013,1.059s3.227-2.393,4.91-3.438c1.2-.725,2.386-1.131,2.575-2.647a3.164,3.164,0,0,0-.029-.609Z" transform="translate(-329.658 -153.771)" fill="#9c73ff"/>
        <path id="Path_30" data-name="Path 30" d="M355.116,278.217c-1.748,1.451-4.808-.13-4.932,0a68.7,68.7,0,0,1-5.766,5.2c-1.088.856-2.785,2-2.473,3.626.544,2.945,5.258,2.038,7.035,1.139s3.235-2.393,4.917-3.438c1.2-.725,2.379-1.131,2.567-2.647C356.574,281.2,355.428,278.181,355.116,278.217Z" transform="translate(-323.971 -150.227)" fill="#38226d"/>
        <path id="Path_31" data-name="Path 31" d="M356.419,283c-.225,1.451-1.392,1.849-2.582,2.589-1.712,1.066-3.22,2.6-5,3.5-1.639.834-5.737,1.661-6.89-.442.624,2.836,5.258,1.944,7.013,1.052s3.227-2.386,4.917-3.438c1.2-.725,2.379-1.131,2.567-2.647A3.189,3.189,0,0,0,356.419,283Z" transform="translate(-323.982 -151.543)" fill="#9c73ff"/>
        <path id="_Контур_" data-name="&lt;Контур&gt;" d="M371.723,194.637c-.08,2.647-.907,14.121-1.269,20.191S370,228.347,370,228.347s1.052,4.424,1.726,9.624,0,21.613,0,21.613a4.127,4.127,0,0,1-4.475,0s-2.792-13.134-4.09-19.053-1.516-9.327-2.176-13c-.812-4.439-2.567-25.152-2.567-25.152l-.725.044-1.857,23.4a26.291,26.291,0,0,1,1.182,5.309c.508,3.808-.537,22.969-.537,22.969a4.642,4.642,0,0,1-4.838-.2s-4.671-25.384-4.671-29.235c0-2.553.435-36.263.435-36.263Z" transform="translate(-325.361 -125.553)" fill="#0b4870"/>
        <path id="_Контур_2" data-name="&lt;Контур&gt;" d="M367.537,126.63s-.3,5.759-.167,6.274,2.64,2.176,3.372,2.8-3.982,5.258-6.273,6.31-9.559-1.719-9.682-5.287,1.24-6.564,2.357-6.723S367.537,126.63,367.537,126.63Z" transform="translate(-327.507 -108.582)" fill="#ffcea9"/>
        <path id="Path_32" data-name="Path 32" d="M344.042,133.657s-1.559-2.386-7.253,10.879-9.2,16.746-11.756,20.046c-2.306,3-3.445-1.77-3.445-1.77s1.835-2.314.3-2.314c-.856.051-2.052,1.813-2.052,1.813l1.951,3.119,5.077,2.575s6.216-5.715,8.224-9.24c2.176-2.778,5.432-8.29,5.432-8.29Z" transform="translate(-317.908 -110.467)" fill="#ffcea9"/>
        <path id="Path_33" data-name="Path 33" d="M319.13,175.907c-.058-.044-1.574-1.806-1.574-1.806s-.907-.791.08-.849,4.5-.065,4.5-.065a1.451,1.451,0,0,1,1.008.283c.442.348,5.541,6.8,5.541,6.8s.225.392-.435.435-4.932,0-4.932,0Z" transform="translate(-317.176 -121.371)" fill="#20232d"/>
        <path id="Path_34" data-name="Path 34" d="M318.843,175.432s-1.5-.283-1.153,1.16,2.5,2.937,2.5,2.937l2.248,1.886a1.7,1.7,0,0,0,1.842,0,1.456,1.456,0,0,0,.5-2.285c-.892-.936-1.69-2.988-3.967-2.9,0,0-.123-.544-1.451-.725" transform="translate(-317.303 -121.984)" fill="#ffcea9"/>
        <path id="_Контур_3" data-name="&lt;Контур&gt;" d="M366.031,134.725s-4.185,6.223-10.016,6.81c-1.835-1.813-2-8.261.544-10.32,0,0-2.343-1.893-3.945-1.523a8.747,8.747,0,0,0-4.076,4.743c-1.073,3.285-1.675,7.071-1.581,13.185s0,24.782,0,24.782.827,3.953,6.1,6.89,9.16,3.22,12.786,2.386c2.952-.689,5.389-1.726,6.4-3.866-.261-4.286-2.176-15.463-1.451-20.851s1.849-9.428,2.176-13.78-.58-4.272-2.763-5.8A33.886,33.886,0,0,0,366.031,134.725Z" transform="translate(-325.355 -109.41)" fill="#f4f4f4"/>
        <path id="_Контур_4" data-name="&lt;Контур&gt;" d="M376.429,185.1c.87-.972,2.364-6.361,3.22-9.762a34.254,34.254,0,0,0,.493-11.626c-.769-4.642-2.9-11.068-3.5-13.729s.2-3.793,1.378-4.867c1.385-1.262,3.452-.885,4.787,2.814a73.251,73.251,0,0,1,3.489,15.782,36.457,36.457,0,0,1-1.037,11.916,41.475,41.475,0,0,1-3.873,9.573c-.457.9-1.5,3.43-2.176,5.258S375.638,185.981,376.429,185.1Z" transform="translate(-333.417 -113.481)" fill="#ffcea9"/>
        <path id="_Контур_5" data-name="&lt;Контур&gt;" d="M354.246,111.9h0c.689-4.475,3.909-7.862,8.522-7.608a8.87,8.87,0,0,1,4.518,16.2,9.04,9.04,0,0,1-.725,1.951c-1.632,1.907-6.564,3.09-7.978,2.9-1.82-.261-2.8-1.023-3.67-3.01C353.39,118.807,353.869,114.115,354.246,111.9Z" transform="translate(-327.256 -102.442)" fill="#ffcea9"/>
        <path id="Path_35" data-name="Path 35" d="M367.536,119.793h0l-.421-3.9s3.184-8.253-4.352-6.672c-4.975,1.052-6.223,1.5-7.731-1.835s3.822-6.332,10.154-5.5a8.754,8.754,0,0,1,7.884,8.877C372.866,113.222,372.214,118.19,367.536,119.793Z" transform="translate(-327.505 -101.745)" fill="#3a2c6d"/>
        <path id="Path_36" data-name="Path 36" d="M385.846,152.845s-4.105,4.09-8.972,2.9c-.725-.471-2.364-10.03-2.364-10.03s0-5.294,4.061-5.157S385.846,152.845,385.846,152.845Z" transform="translate(-332.928 -112.408)" fill="#ededed"/>
        <path id="Path_37" data-name="Path 37" d="M345.657,144.5s-2.662.334-3.547-.914c.16-2.176,3.706-13.272,9.211-13.874a18.714,18.714,0,0,0-3.438,4.156C345.918,137.122,345.657,144.5,345.657,144.5Z" transform="translate(-324.026 -109.428)" fill="#ededed"/>
      </g>
    </g>
    <text id="For_kids" data-name="For kids" transform="translate(58 441)" fill="#0b4870" font-size="18" font-family="GoogleSans-Bold, Google Sans" font-weight="700"><tspan x="0" y="0">For kids</tspan></text>
    <path id="toggle" d="M36.833,0H15.167a15.167,15.167,0,0,0,0,30.333H36.833A15.167,15.167,0,0,0,36.833,0ZM15.167,23.833a8.667,8.667,0,1,1,8.667-8.667A8.676,8.676,0,0,1,15.167,23.833Zm0,0" transform="translate(265 419.335)" fill="#0b4870"/>
  </g>
</svg>
