<svg xmlns="http://www.w3.org/2000/svg" xmlns:xlink="http://www.w3.org/1999/xlink" width="375" height="812" viewBox="0 0 375 812">
  <defs>
    <clipPath id="clip-iPhone_X_XS_11_Pro_4">
      <rect width="375" height="812"/>
    </clipPath>
  </defs>
  <g id="iPhone_X_XS_11_Pro_4" data-name="iPhone X, XS, 11 Pro – 4" clip-path="url(#clip-iPhone_X_XS_11_Pro_4)">
    <rect width="375" height="812" fill="#f1f0f2"/>
    <g id="Group_129" data-name="Group 129">
      <g id="Group_11" data-name="Group 11" transform="translate(3 3.41)">
        <rect id="Rectangle_10" data-name="Rectangle 10" width="322" height="702" rx="18" transform="translate(24 20.59)" fill="#fff"/>
      </g>
      <line id="Line_1" data-name="Line 1" x2="375" transform="translate(0.5 749.5)" fill="none" stroke="#0b4870" stroke-width="2" opacity="0.6"/>
      <path id="Path_760" data-name="Path 760" d="M13.771,2.4a1.352,1.352,0,0,0-1.912,0L2.4,11.859a1.352,1.352,0,1,0,1.912,1.912l.4-.4v8.9A1.352,1.352,0,0,0,6.056,23.63h2.7a1.352,1.352,0,0,0,1.352-1.352v-2.7a1.352,1.352,0,0,1,1.352-1.352h2.7a1.352,1.352,0,0,1,1.352,1.352v2.7a1.352,1.352,0,0,0,1.352,1.352h2.7a1.352,1.352,0,0,0,1.352-1.352v-8.9l.4.4a1.352,1.352,0,1,0,1.912-1.912L13.771,2.4Z" transform="translate(74.37 768)" fill="#1e366a"/>
      <g id="Group_8" data-name="Group 8" transform="translate(173.336 767.815)">
        <path id="Path_761" data-name="Path 761" d="M9.353,2a1.353,1.353,0,0,0,0,2.707H12.06A1.353,1.353,0,0,0,12.06,2Z" transform="translate(3.02)" fill="#1e366a"/>
        <path id="Path_762" data-name="Path 762" d="M4,5.728A3.019,3.019,0,0,1,7.242,3c0,2.26,2.177,4.092,4.863,4.092h3.242C18.033,7.092,20.21,5.26,20.21,3a3.019,3.019,0,0,1,3.242,2.728V20.734a3.019,3.019,0,0,1-3.242,2.728H7.242A3.019,3.019,0,0,1,4,20.734Zm4.863,5.456a1.509,1.509,0,0,0-1.621,1.364,1.509,1.509,0,0,0,1.621,1.364h.016A1.509,1.509,0,0,0,10.5,12.549a1.509,1.509,0,0,0-1.621-1.364Zm4.863,0a1.509,1.509,0,0,0-1.621,1.364,1.509,1.509,0,0,0,1.621,1.364h4.863a1.509,1.509,0,0,0,1.621-1.364,1.509,1.509,0,0,0-1.621-1.364ZM8.863,16.641a1.509,1.509,0,0,0-1.621,1.364,1.509,1.509,0,0,0,1.621,1.364h.016A1.509,1.509,0,0,0,10.5,18.005a1.509,1.509,0,0,0-1.621-1.364Zm4.863,0a1.509,1.509,0,0,0-1.621,1.364,1.509,1.509,0,0,0,1.621,1.364h4.863a1.509,1.509,0,0,0,1.621-1.364,1.509,1.509,0,0,0-1.621-1.364Z" transform="translate(0 0.353)" fill="#1e366a" fill-rule="evenodd"/>
      </g>
      <rect id="Rectangle_9" data-name="Rectangle 9" width="68" height="37" rx="18" transform="translate(247 762)" fill="rgba(127,155,203,0.3)"/>
      <path id="Path_770" data-name="Path 770" d="M23.63,12.815A10.815,10.815,0,1,1,12.815,2,10.815,10.815,0,0,1,23.63,12.815ZM15.519,8.759a2.7,2.7,0,1,1-2.7-2.7A2.7,2.7,0,0,1,15.519,8.759Zm-2.7,5.408A6.76,6.76,0,0,0,6.669,18.11a8.113,8.113,0,0,0,12.292,0A6.759,6.759,0,0,0,12.815,14.167Z" transform="translate(268 768)" fill="#1e366a" fill-rule="evenodd"/>
      <text id="Profile" transform="translate(54 53)" fill="#0b4870" font-size="32" font-family="GoogleSans-Bold, Google Sans" font-weight="700"><tspan x="0" y="31">Profile</tspan></text>
      <text id="Edit_and_manage_your_profile_details" data-name="Edit and manage your profile details" transform="translate(56 104)" fill="#0b4870" font-size="14" font-family="GoogleSans-Bold, Google Sans" font-weight="700" opacity="0.5"><tspan x="0" y="0">Edit and manage your profile details</tspan></text>
      <g id="man" transform="translate(64 144)">
        <g id="Group_17" data-name="Group 17" transform="translate(0)">
          <g id="Group_16" data-name="Group 16">
            <path id="Path_916" data-name="Path 916" d="M73,36.5a36.332,36.332,0,0,1-7.031,21.538C59.33,67.109,48.6,63.673,36.5,63.673S13.67,67.109,7.031,58.038A36.5,36.5,0,1,1,73,36.5Z" transform="translate(0)" fill="#80aeff"/>
          </g>
        </g>
        <g id="Group_18" data-name="Group 18" transform="translate(7.031 4.206)">
          <path id="Path_918" data-name="Path 918" d="M172.246,300.33h23.883v6.226H172.246Z" transform="translate(-154.718 -261.716)" fill="#584b66"/>
          <path id="Path_919" data-name="Path 919" d="M256,300.33h11.941v6.226H256Z" transform="translate(-226.531 -261.716)" fill="#4a3e56"/>
          <path id="Path_920" data-name="Path 920" d="M199.97,260.488h15.977v16.944H199.97Z" transform="translate(-178.489 -227.554)" fill="#ffbb7d"/>
          <path id="Path_921" data-name="Path 921" d="M256,260.491h7.989v16.944H256Z" transform="translate(-226.531 -227.557)" fill="#efa36a"/>
          <path id="Path_922" data-name="Path 922" d="M134.563,332.292h34.629v16.3H134.563Z" transform="translate(-122.408 -289.12)" fill="#ffd4a6"/>
          <path id="Path_923" data-name="Path 923" d="M256,332.292h17.315v16.3H256Z" transform="translate(-226.531 -289.12)" fill="#ffbb7d"/>
          <path id="Path_924" data-name="Path 924" d="M108.249,342.951a36.5,36.5,0,0,1-58.939,0,11.007,11.007,0,0,1,11-10.661H70.791l7.989,7.658,7.989-7.658H97.249A11,11,0,0,1,108.249,342.951Z" transform="translate(-49.31 -289.119)" fill="#7b7284"/>
          <path id="Path_925" data-name="Path 925" d="M285.469,342.951A36.448,36.448,0,0,1,256,357.913V339.948l6.246-5.988,1.742-1.67H274.47A11,11,0,0,1,285.469,342.951Z" transform="translate(-226.531 -289.119)" fill="#635a6d"/>
          <path id="Path_926" data-name="Path 926" d="M174.4,80.641c-.564-8.561-7.489-11.725-13.348-11.725s-12.784,3.164-13.348,11.725c-1.515.293-2.592,2.281-2.422,3.887l.26,3.657a3.025,3.025,0,0,0,3.3,2.736l.282-.031c3.348,8.991,8.6,9.929,11.933,10.455,3.333-.526,8.584-1.464,11.933-10.455l.282.031a3.025,3.025,0,0,0,3.3-2.736l.26-3.657C177,82.921,175.92,80.934,174.4,80.641Z" transform="translate(-131.587 -63.296)" fill="#ffd4a6"/>
          <path id="Path_927" data-name="Path 927" d="M271.771,84.528l-.26,3.657a3.025,3.025,0,0,1-3.3,2.736l-.282-.031a19.143,19.143,0,0,1-3.944,6.7A12.813,12.813,0,0,1,256,101.346V68.916c5.859,0,12.784,3.164,13.348,11.725C270.864,80.934,271.941,82.921,271.771,84.528Z" transform="translate(-226.531 -63.296)" fill="#ffbb7d"/>
          <path id="Path_930" data-name="Path 930" d="M146.741,300.33l11.941,12.215-5.971,6.416L142.5,304.887Z" transform="translate(-129.213 -261.716)" fill="#9d97a5"/>
          <path id="Path_931" data-name="Path 931" d="M267.941,300.33,256,312.545l5.971,6.416,10.212-14.074Z" transform="translate(-226.531 -261.716)" fill="#7f7887"/>
          <path id="Path_932" data-name="Path 932" d="M161.127,29.5s-7.72,7.525-6.121,14.951l1.114,7.4h3.065l1.466-5.455a3.629,3.629,0,0,1,4.458-2.576q.279.078.555.176l.536.19a8.656,8.656,0,0,0,6.044-.128,8.529,8.529,0,0,1,1.191-.366,3.642,3.642,0,0,1,4.325,2.61l1.491,5.551h3.065l1.111-7.7C183.666,37.544,178.359,29.5,161.127,29.5Z" transform="translate(-139.749 -29.5)" fill="#494949"/>
          <path id="Path_933" data-name="Path 933" d="M270.209,48.408l-1.111,7.7h-3.065l-1.491-5.551a3.642,3.642,0,0,0-4.326-2.609,8.358,8.358,0,0,0-1.191.366,8.9,8.9,0,0,1-3.025.609V34.47C266.852,36.574,270.4,42.979,270.209,48.408Z" transform="translate(-226.531 -33.761)" fill="#333"/>
        </g>
      </g>
      <text id="Mike_Tyson" data-name="Mike Tyson" transform="translate(164 164)" fill="#0b4870" font-size="18" font-family="GoogleSans-Bold, Google Sans" font-weight="700"><tspan x="0" y="0">Mike Tyson</tspan></text>
      <text id="Art_director_at_MX_studios" data-name="Art director at MX 
studios" transform="translate(164 187)" fill="#8c929e" font-size="14" font-family="GoogleSans-Bold, Google Sans" font-weight="700"><tspan x="0" y="0">Art director at MX </tspan><tspan x="0" y="17">studios</tspan></text>
      <rect id="Rectangle_18" data-name="Rectangle 18" width="55" height="1" rx="0.5" transform="translate(137 245.5) rotate(90)" fill="#0b4870"/>
      <rect id="Rectangle_19" data-name="Rectangle 19" width="55" height="1" rx="0.5" transform="translate(226 245.5) rotate(90)" fill="#0b4870"/>
      <text id="_78" data-name="78" transform="translate(79 271)" fill="#0b4870" font-size="24" font-family="GoogleSans-Bold, Google Sans" font-weight="700"><tspan x="0" y="0">78</tspan></text>
      <text id="Credits" transform="translate(68 293)" fill="#0b4870" font-size="14" font-family="GoogleSans-Bold, Google Sans" font-weight="700"><tspan x="0" y="0">Credits</tspan></text>
      <text id="Rating" transform="translate(159 293)" fill="#0b4870" font-size="14" font-family="GoogleSans-Bold, Google Sans" font-weight="700"><tspan x="0" y="0">Rating</tspan></text>
      <text id="_4.3" data-name="4.3" transform="translate(162 270)" fill="#0b4870" font-size="24" font-family="GoogleSans-Bold, Google Sans" font-weight="700"><tspan x="0" y="0">4.3</tspan></text>
      <text id="Voluntered" transform="translate(233 294)" fill="#0b4870" font-size="14" font-family="GoogleSans-Bold, Google Sans" font-weight="700"><tspan x="0" y="0">Voluntered</tspan></text>
      <text id="_28" data-name="28" transform="translate(256 271)" fill="#0b4870" font-size="24" font-family="GoogleSans-Bold, Google Sans" font-weight="700"><tspan x="0" y="0">28</tspan></text>
      <text id="Bio" transform="translate(54 354)" fill="#0b4870" font-size="18" font-family="GoogleSans-Bold, Google Sans" font-weight="700"><tspan x="0" y="0">Bio</tspan></text>
      <g id="Group_19" data-name="Group 19" transform="translate(91 336)">
        <path id="Path_934" data-name="Path 934" d="M17.414,2.586a2,2,0,0,0-2.828,0L7,10.172V13H9.828l7.586-7.586A2,2,0,0,0,17.414,2.586Z" fill="#0b4870"/>
        <path id="Path_935" data-name="Path 935" d="M2,6A2,2,0,0,1,4,4H8A1,1,0,0,1,8,6H4V16H14V12a1,1,0,0,1,2,0v4a2,2,0,0,1-2,2H4a2,2,0,0,1-2-2Z" fill="#0b4870" fill-rule="evenodd"/>
      </g>
      <text id="Lorem_Ipsum_loda_lassun_is_simply_dummy_text_of_the_printing_and_typesetting_industry._Lorem_Ipsum_has_been_the_industry_s_standard_dummy_text_ever_since_the_1500s_when_an_unknown_printer_took_a_galley_of_type_and_scrambled_it_to_make_a_type_specimen_book" data-name="Lorem Ipsum loda lassun is simply dummy text of the printing and typesetting industry. Lorem Ipsum has been the industry&apos;s standard dummy text ever since the 1500s, when an unknown printer took a galley of type and scrambled it to make a type specimen book" transform="translate(54 370)" fill="#0b4870" font-size="14" font-family="GoogleSans-Regular, Google Sans"><tspan x="0" y="13">Lorem Ipsum loda lassun is simply dummy </tspan><tspan x="0" y="33">text of the printing and typesetting </tspan><tspan x="0" y="53">industry. Lorem Ipsum has been the </tspan><tspan x="0" y="73">industry&apos;s standard dummy text ever since </tspan><tspan x="0" y="93">the 1500s, when an unknown printer took </tspan><tspan x="0" y="113">a galley of type and scrambled it to make a </tspan><tspan x="0" y="133">type specimen book an deliver it.</tspan></text>
      <path id="Path_936" data-name="Path 936" d="M10.592,7.185a2.592,2.592,0,1,1,2.592-2.592A2.592,2.592,0,0,1,10.592,7.185Zm0,7.777a2.592,2.592,0,1,1,2.592-2.592A2.592,2.592,0,0,1,10.592,14.962Zm0,7.777a2.592,2.592,0,1,1,2.592-2.592A2.592,2.592,0,0,1,10.592,22.74Z" transform="translate(309 59.74)" fill="#0b4870"/>
      <path id="toggle" d="M36.833,0H15.167a15.167,15.167,0,0,0,0,30.333H36.833A15.167,15.167,0,0,0,36.833,0ZM15.167,23.833a8.667,8.667,0,1,1,8.667-8.667A8.676,8.676,0,0,1,15.167,23.833Zm0,0" transform="translate(264 534.335)" fill="#0b4870"/>
      <text id="Availability_Status" data-name="Availability Status" transform="translate(54 556)" fill="#0b4870" font-size="18" font-family="GoogleSans-Bold, Google Sans" font-weight="700"><tspan x="0" y="0">Availability Status</tspan></text>
      <g id="Group_20" data-name="Group 20" transform="translate(0 -18)">
        <rect id="Rectangle_20" data-name="Rectangle 20" width="264" height="82" rx="17" transform="translate(54 620)" fill="#0b4870"/>
        <text id="Redeem_credits" data-name="Redeem credits" transform="translate(73 649)" fill="#fff" font-size="22" font-family="GoogleSans-Bold, Google Sans" font-weight="700"><tspan x="0" y="0">Redeem credits</tspan></text>
        <text id="Get_your_credits_encashed_for_exclusive_stuff" data-name="Get your credits encashed for 
exclusive stuff" transform="translate(74 671)" fill="#fff" font-size="12" font-family="GoogleSans-Bold, Google Sans" font-weight="700"><tspan x="0" y="0">Get your credits encashed for </tspan><tspan x="0" y="15">exclusive stuff</tspan></text>
      </g>
      <g id="money" transform="translate(265 621.059)">
        <path id="Path_939" data-name="Path 939" d="M195.031,131.37a1.754,1.754,0,0,0,3.508,0,6.468,6.468,0,0,0-2.756-5.124,9.638,9.638,0,0,0-4.259-1.752V122.6a1.754,1.754,0,0,0-3.508,0v1.894a9.638,9.638,0,0,0-4.259,1.752,6.14,6.14,0,0,0,0,10.247,9.638,9.638,0,0,0,4.259,1.752v6.946c-2.02-.494-3.508-1.8-3.508-3.3a1.754,1.754,0,0,0-3.508,0,6.469,6.469,0,0,0,2.756,5.124,9.639,9.639,0,0,0,4.259,1.752v1.912a1.754,1.754,0,1,0,3.508,0v-1.912a9.638,9.638,0,0,0,4.259-1.752,6.14,6.14,0,0,0,0-10.247,9.638,9.638,0,0,0-4.259-1.752v-6.946C193.543,128.565,195.031,129.876,195.031,131.37Zm-10.523,0c0-1.494,1.487-2.8,3.508-3.3v6.6C185.995,134.175,184.508,132.864,184.508,131.37Zm10.523,10.523c0,1.494-1.487,2.8-3.508,3.3v-6.6C193.543,139.088,195.031,140.4,195.031,141.893Z" transform="translate(-169.173 -116.948)" fill="#fff"/>
      </g>
    </g>
  </g>
</svg>
