<svg xmlns="http://www.w3.org/2000/svg" xmlns:xlink="http://www.w3.org/1999/xlink" width="375" height="812" viewBox="0 0 375 812">
  <defs>
    <clipPath id="clip-iPhone_X_XS_11_Pro_1">
      <rect width="375" height="812"/>
    </clipPath>
  </defs>
  <g id="iPhone_X_XS_11_Pro_1" data-name="iPhone X, XS, 11 Pro – 1" clip-path="url(#clip-iPhone_X_XS_11_Pro_1)">
    <rect width="375" height="812" fill="#f7f7f7"/>
    <g id="Group_126" data-name="Group 126">
      <text id="Hey_there_" data-name="Hey there !
" transform="translate(29 358)" fill="#0b4870" font-size="24" font-family="GoogleSans-Bold, Google Sans" font-weight="700"><tspan x="0" y="23">Hey there !</tspan><tspan y="23" font-size="19" font-family="GoogleSans-Regular, Google Sans" font-weight="400"></tspan></text>
      <g id="Group_123" data-name="Group 123" transform="translate(0 -5)">
        <g id="Group_6" data-name="Group 6" transform="translate(-5 -60)" opacity="0.8">
          <g id="Group_2" data-name="Group 2" transform="translate(36 619)" opacity="0.85">
            <g id="Rectangle_1" data-name="Rectangle 1" fill="#fff" stroke="#0b4870" stroke-width="2">
              <rect width="317" height="42" rx="21" stroke="none"/>
              <rect x="1" y="1" width="315" height="40" rx="20" fill="none"/>
            </g>
            <g id="Group_4" data-name="Group 4">
              <text id="Enter_your_Username" data-name="Enter your Username" transform="translate(45 26)" fill="#a9afc4" font-size="16" font-family="SegoeUI, Segoe UI"><tspan x="0" y="0">Enter your Username</tspan></text>
              <g id="person-24px" transform="translate(11.665 6.172)" style="isolation: isolate">
                <path id="Path_1" data-name="Path 1" d="M0,0H30.829V30.829H0Z" fill="none"/>
                <path id="Path_2" data-name="Path 2" d="M14.276,14.276A5.138,5.138,0,1,0,9.138,9.138,5.137,5.137,0,0,0,14.276,14.276Zm0,2.569C10.847,16.845,4,18.567,4,21.984v2.569H24.553V21.984C24.553,18.567,17.706,16.845,14.276,16.845Z" transform="translate(1.138 1.138)" fill="#525667"/>
              </g>
              <g id="Rectangle_8" data-name="Rectangle 8" fill="#f7f7f7" stroke="#0b4870" stroke-width="2">
                <rect width="317" height="42" rx="21" stroke="none"/>
                <rect x="1" y="1" width="315" height="40" rx="20" fill="none"/>
              </g>
              <text id="Enter_your_Username-2" data-name="Enter your Username" transform="translate(58 24)" fill="#0b4870" font-size="14" font-family="GoogleSans-Regular, Google Sans" opacity="0.85"><tspan x="0" y="0">Enter your Username</tspan></text>
            </g>
          </g>
          <path id="Path_758" data-name="Path 758" d="M10.822,9.7A3.352,3.352,0,1,0,7.47,6.352,3.352,3.352,0,0,0,10.822,9.7ZM3,19.761a7.822,7.822,0,1,1,15.644,0Z" transform="translate(56.215 628.365)" fill="#0b4870" fill-rule="evenodd"/>
        </g>
        <text id="or" transform="translate(179 666)" fill="#0b4870" font-size="14" font-family="SegoeUI-Bold, Segoe UI" font-weight="700"><tspan x="0" y="15">or</tspan></text>
        <g id="Group_24" data-name="Group 24" transform="translate(-5 -3)" opacity="0.8">
          <g id="Group_2-2" data-name="Group 2" transform="translate(36 619)" opacity="0.85">
            <g id="Rectangle_1-2" data-name="Rectangle 1" fill="#fff" stroke="#0b4870" stroke-width="2">
              <rect width="317" height="42" rx="21" stroke="none"/>
              <rect x="1" y="1" width="315" height="40" rx="20" fill="none"/>
            </g>
            <g id="Group_4-2" data-name="Group 4">
              <text id="Enter_your_Username-3" data-name="Enter your Username" transform="translate(45 26)" fill="#a9afc4" font-size="16" font-family="SegoeUI, Segoe UI"><tspan x="0" y="0">Enter your Username</tspan></text>
              <g id="person-24px-2" data-name="person-24px" transform="translate(11.665 6.172)" style="isolation: isolate">
                <path id="Path_1-2" data-name="Path 1" d="M0,0H30.829V30.829H0Z" fill="none"/>
                <path id="Path_2-2" data-name="Path 2" d="M14.276,14.276A5.138,5.138,0,1,0,9.138,9.138,5.137,5.137,0,0,0,14.276,14.276Zm0,2.569C10.847,16.845,4,18.567,4,21.984v2.569H24.553V21.984C24.553,18.567,17.706,16.845,14.276,16.845Z" transform="translate(1.138 1.138)" fill="#525667"/>
              </g>
              <g id="Rectangle_8-2" data-name="Rectangle 8" fill="#f7f7f7" stroke="#0b4870" stroke-width="2">
                <rect width="317" height="42" rx="21" stroke="none"/>
                <rect x="1" y="1" width="315" height="40" rx="20" fill="none"/>
              </g>
              <text id="Enter_your_Password" data-name="Enter your Password" transform="translate(59 25)" fill="#0b4870" font-size="14" font-family="GoogleSans-Regular, Google Sans" opacity="0.85"><tspan x="0" y="0">Enter your Password</tspan></text>
            </g>
          </g>
        </g>
        <path id="Path_757" data-name="Path 757" d="M5.223,9.781V7.558a5.558,5.558,0,1,1,11.115,0V9.781A2.223,2.223,0,0,1,18.562,12v5.558a2.223,2.223,0,0,1-2.223,2.223H5.223A2.223,2.223,0,0,1,3,17.562V12A2.223,2.223,0,0,1,5.223,9.781Zm8.892-2.223V9.781H7.446V7.558a3.335,3.335,0,1,1,6.669,0Z" transform="translate(52 625.656)" fill="#0b4870" fill-rule="evenodd" opacity="0.9"/>
        <g id="Group_25" data-name="Group 25" transform="translate(29 599)" opacity="0.85">
          <g id="Rectangle_1-3" data-name="Rectangle 1" transform="translate(0 99)" fill="#0b4870" stroke="rgba(59,67,146,0.45)" stroke-width="2">
            <rect width="317" height="42" rx="21" stroke="none"/>
            <rect x="1" y="1" width="315" height="40" rx="20" fill="none"/>
          </g>
        </g>
        <text id="Sign_up" data-name="Sign up" transform="translate(161 709)" fill="#fff" font-size="14" font-family="GoogleSans-Bold, Google Sans" font-weight="700"><tspan x="0" y="13">Sign up</tspan></text>
      </g>
      <g id="DESIGNED_BY_FREEPIK" transform="translate(-54.572 -44.188)">
        <g id="Group_50" data-name="Group 50" transform="translate(50.636 171.518) rotate(-19)" opacity="0.3">
          <path id="Path_1009" data-name="Path 1009" d="M311.5,263c-27.688-3.416-46.411,10.827-65.938,18.281-22.988,8.774-42.1-5.922-59.927-14.224-32.034-14.92-55.067,14.907-90.519-.932-33.931-15.159-33.212-61.193-2.88-78.315s32.122-24.566,32.95-43.048,2.941-52.9,39.37-44.823c31.311,6.945,51.411,5.211,69.152-3.106s79.052-27.379,83.955,31.838c2.342,28.3,5.929,39.106,28.433,53.126s33.669,36.938,27.516,57.086C367.784,257.962,348.482,267.561,311.5,263Z" transform="translate(-73.2 -67.664)" fill="#ffbe55"/>
        </g>
        <g id="Group_53" data-name="Group 53">
          <g id="Group_52" data-name="Group 52">
            <g id="Group_51" data-name="Group 51">
              <path id="Path_1010" data-name="Path 1010" d="M160.4,235.958a5.057,5.057,0,0,1,1.019,1.479,8.422,8.422,0,0,0,1.227,1.74,19.464,19.464,0,0,1,1.71,2.971,15,15,0,0,0,.12,2.207c.189.443.683,1.295.288,1.441s-1.051-.5-1.051-.5a.6.6,0,0,1-.158.646,1.03,1.03,0,0,1-1.022.256s-.131.518-.427.645a1.322,1.322,0,0,1-1.063.078,1.213,1.213,0,0,1-.715.414,1.106,1.106,0,0,1-1-.355s-.732.318-1.049,0a3.717,3.717,0,0,1-.552-1.012,12.8,12.8,0,0,1-.409-5.611,5.063,5.063,0,0,0-1.33-4.143Z" fill="#eea886"/>
            </g>
          </g>
        </g>
        <g id="Group_54" data-name="Group 54">
          <path id="Path_1011" data-name="Path 1011" d="M165.843,253.05l-10.134-.268a1.866,1.866,0,0,1-1.817-1.914l.167-6.391a1.868,1.868,0,0,1,1.917-1.816l10.132.266a1.868,1.868,0,0,1,1.817,1.916l-.168,6.389A1.872,1.872,0,0,1,165.843,253.05Zm-9.9-9.137a.615.615,0,0,0-.63.6l-.168,6.389a.615.615,0,0,0,.6.629l10.133.268a.619.619,0,0,0,.631-.6l.167-6.389a.616.616,0,0,0-.6-.631Z" fill="#0b4870"/>
        </g>
        <g id="Group_55" data-name="Group 55">
          <rect id="Rectangle_21" data-name="Rectangle 21" width="27.121" height="27.248" transform="translate(147.303 249.826) rotate(1.501)" fill="#0b4870"/>
        </g>
        <g id="Group_56" data-name="Group 56">
          <rect id="Rectangle_22" data-name="Rectangle 22" width="27.123" height="15.795" transform="translate(147.301 249.826) rotate(1.501)" fill="#0b4870"/>
        </g>
        <g id="Group_58" data-name="Group 58">
          <g id="Group_57" data-name="Group 57">
            <path id="Path_1012" data-name="Path 1012" d="M163.752,245s-.61-2.662-1.45-3.08-.674.557-.674.557-.147-.965-.94-.932-.537,1.162-.537,1.162a.789.789,0,0,0-1.07-.385c-.762.318-.332,1.207-.332,1.207s-1-.75-1.267.23a4.091,4.091,0,0,0,.8,3.229s.339.352,1.049,0a1.092,1.092,0,0,0,1.718-.059s1.329.4,1.49-.723C162.534,246.2,163.973,246.54,163.752,245Z" fill="#db9c7c"/>
          </g>
        </g>
        <path id="Path_1013" data-name="Path 1013" d="M154.029,242.661l-3.113,18.764L149.4,259.4S153.826,243.429,154.029,242.661Z" fill="#122333"/>
        <g id="Group_59" data-name="Group 59">
          <path id="Path_1014" data-name="Path 1014" d="M141.533,313.815c-.848-1.207-.085-5.729,1.969-7.619a2.816,2.816,0,0,1,3.938-.094s1.194,2.889,2.135,3.686,5.11,6.223,6.55,6.5,4.31.461,4.427,1.072.187,3.578-3.9,3.674-5.168.021-6.163-.979-4.9-3.875-5.977-3.85Z" fill="#db9c7c"/>
          <path id="Path_1015" data-name="Path 1015" d="M156.125,316.284s-4.54.619-6.469-.869-4.348-5.193-8.2-5.268c0,0-1.38,1.766.879,5.8a50.122,50.122,0,0,1,1.218,5.393l1.074-.025-.122-5.113a21.881,21.881,0,0,1,6.521,4.654s7.844,1.248,9.322-1.193a3.235,3.235,0,0,0,.455-2.414C160.444,316.054,156.125,316.284,156.125,316.284Z" fill="#ffbe55" opacity="0.9"/>
          <path id="Path_1016" data-name="Path 1016" d="M138.822,231.364s-4.8,5.826,1.216,16.221c0,0,.514,5.312.617,7.307s1.389,9.451.7,13.072-2.946,9.055-2.1,14.248,4.693,20.188,3.952,24.031l4.269-.1s1.521-31.758,1.994-32.879a14.778,14.778,0,0,0,2.128-8.48c-.228-4.932,4.828-25.133,4.807-30.732S138.822,231.364,138.822,231.364Z" fill="#db9c7c"/>
          <path id="Path_1017" data-name="Path 1017" d="M138.643,313.771c-.817-1.229.052-5.73,2.149-7.572a2.816,2.816,0,0,1,3.938,0s1.127,2.916,2.047,3.734,4.963,6.344,6.4,6.65,4.3.564,4.4,1.178.1,3.58-3.99,3.58-5.168-.1-6.14-1.125-4.809-3.99-5.884-3.99Z" fill="#eea886"/>
          <path id="Path_1018" data-name="Path 1018" d="M153.172,316.583s-4.553.512-6.445-1.023-4.225-5.293-8.072-5.461c0,0-1.421,1.734.741,5.824a49.606,49.606,0,0,1,1.089,5.418h1.074v-5.115a21.857,21.857,0,0,1,6.41,4.809s7.812,1.432,9.348-.971a3.242,3.242,0,0,0,.512-2.406C157.495,316.456,153.172,316.583,153.172,316.583Z" fill="#ffbe55" opacity="0.9"/>
          <path id="Path_1019" data-name="Path 1019" d="M137.885,231.276s-4.935,5.711.832,16.246c0,0,.388,5.322.443,7.318s1.164,9.482.389,13.086-3.161,8.982-2.439,14.193,4.214,20.65,3.382,24.477l4.27-.357s2.273-31.715,2.771-32.824a14.76,14.76,0,0,0,2.329-8.428c-.11-4.936,6.819-23.842,6.931-29.441S137.885,231.276,137.885,231.276Z" fill="#eea886"/>
          <path id="Path_1020" data-name="Path 1020" d="M156.792,237.044s-5.493,31.6-4.274,36.15a72.02,72.02,0,0,1-16.6-3.7s3.655-12.371,2.42-18.928-4.021-10.146-2.184-16.771S156.792,237.044,156.792,237.044Z" fill="#0e538c"/>
        </g>
        <path id="Path_1021" data-name="Path 1021" d="M287.636,165.3s5.115-3.2,7.73.951c1.925,3.053,2.507,14.9,2.507,14.9l.581,11.463s-.811,1.883-5.409,1.758S287.636,165.3,287.636,165.3Z" fill="#0e538c"/>
        <path id="Path_1022" data-name="Path 1022" d="M292.118,305.173a48.642,48.642,0,0,1-4.079,5.359s-4.5,2.76-4.666,4.594c-.109,1.2,1.8,1.307,4.879,1.395s5.059-.988,5.621-2.855a5.628,5.628,0,0,1,1.631-2.7v3.9h.692s.174-3.775.218-4.469.5-3.363-.967-4.545A4.055,4.055,0,0,0,292.118,305.173Z" fill="#ffbe55" opacity="0.9"/>
        <path id="Path_1023" data-name="Path 1023" d="M287.539,310.753a4.813,4.813,0,0,0,4.832-.418,9.391,9.391,0,0,0,3.076-4.479l-3.329-.684Z" fill="#dba585"/>
        <g id="Group_60" data-name="Group 60">
          <path id="Path_1024" data-name="Path 1024" d="M272.4,301.724a12.608,12.608,0,0,1-1.455,2.432c-.7.906-2.861,4.641-3.818,4.9s-4.164,2.432-4.425,4.08-.13,1.172,2.777,1.3,4.815.3,6.2-1.734a15.122,15.122,0,0,1,3.6-3.514v5.318h1.128s.521-5.537.825-5.928,1.083-4.643-1.606-6.855S272.4,301.724,272.4,301.724Z" fill="#ffbe55" opacity="0.9"/>
          <path id="Path_1025" data-name="Path 1025" d="M267.125,309.056s2.6.652,3.6,0,4.39-6.385,5.515-6.729c0,0-1.09-2.209-3.844-.6C272.4,301.724,267.863,308.1,267.125,309.056Z" fill="#dba585"/>
        </g>
        <g id="Group_63" data-name="Group 63">
          <g id="Group_62" data-name="Group 62">
            <g id="Group_61" data-name="Group 61">
              <path id="Path_1026" data-name="Path 1026" d="M264.342,238.542a4.35,4.35,0,0,0-.9,1.244,7.231,7.231,0,0,1-1.091,1.463,16.843,16.843,0,0,0-1.533,2.508,12.624,12.624,0,0,1-.15,1.887c-.171.377-.614,1.1-.279,1.23s.91-.4.91-.4a.516.516,0,0,0,.121.559.889.889,0,0,0,.872.242s.1.445.351.561a1.13,1.13,0,0,0,.908.092,1.036,1.036,0,0,0,.6.371.949.949,0,0,0,.867-.283s.619.289.9.027a3.2,3.2,0,0,0,.5-.855,10.988,10.988,0,0,0,.475-4.8,4.342,4.342,0,0,1,1.234-3.52Z" fill="#dba585"/>
            </g>
          </g>
        </g>
        <g id="Group_64" data-name="Group 64">
          <path id="Path_1027" data-name="Path 1027" d="M257.189,252.411v-5.477a1.6,1.6,0,0,1,1.6-1.6h8.687a1.6,1.6,0,0,1,1.6,1.6v5.477a1.6,1.6,0,0,1-1.6,1.6h-8.687A1.6,1.6,0,0,1,257.189,252.411Zm1.6-6a.526.526,0,0,0-.526.527v5.477a.526.526,0,0,0,.526.527h8.687a.528.528,0,0,0,.527-.527v-5.477a.528.528,0,0,0-.527-.527Z" fill="#0b4870"/>
        </g>
        <g id="Group_65" data-name="Group 65">
          <rect id="Rectangle_23" data-name="Rectangle 23" width="32.591" height="23.352" transform="translate(246.837 251.659)" fill="#0e538c"/>
        </g>
        <g id="Group_66" data-name="Group 66">
          <path id="Path_1028" data-name="Path 1028" d="M276.975,189.177s1.67.025,2.382,5.016-.638,7.078-.8,9.154-2.6,15.494-2.663,16.088-.394,7.732-1.344,9.627-7.935,12.633-8.028,13.168-3.393-1.869-3.393-1.869,5.489-11.488,5.807-12.8,2.527-8,2.178-10.047.979-13.311.85-14.564S273.777,189.94,276.975,189.177Z" fill="#dba585"/>
        </g>
        <g id="Group_67" data-name="Group 67">
          <path id="Path_1029" data-name="Path 1029" d="M276.975,189.177s1.67.025,2.382,5.016a20.427,20.427,0,0,1-.362,8.953c-.406,2.043-1.791,14.543-1.857,15.135s-1.724,8.129-2.585,10.781c-.655,2.016-6.884,12.568-6.978,13.1s-4.841-2.467-4.841-2.467,6.09-11.881,6.406-13.191a52.016,52.016,0,0,0,1.384-7.92c.039-2.434,1.57-14.383,1.441-15.637S272.316,190.884,276.975,189.177Z" fill="#0e538c"/>
        </g>
        <path id="Path_1030" data-name="Path 1030" d="M292.895,222.265a27.251,27.251,0,0,1,4.666,10.436c.994,5.662-.589,24.664-.544,27.465s2.646,9.762,2.124,15.033S297,306.277,297,306.277l-6.06-.684s.325-26.748,0-28.963-.979-10.279-1.109-11.189-8.264-24.838-8.264-28.92S284.043,215.6,292.895,222.265Z" fill="#0b4870"/>
        <path id="Path_1031" data-name="Path 1031" d="M274.453,224.132s-6.031,23.016-6.746,26.205-1.755,5.82-1.755,7.174a47.382,47.382,0,0,0,1.168,8.186l4.1,36.447H276.4s.091-21.283.417-25.576-2.344-10.936-1.692-12.758,10.479-22.844,10.479-22.844S293.046,217.448,274.453,224.132Z" fill="#0b4870"/>
        <g id="Group_68" data-name="Group 68">
          <path id="Path_1032" data-name="Path 1032" d="M281.873,187.378a33.9,33.9,0,0,1-4.338,1.746c-1.119.223-5.459,5.859-6.219,7.916s0,5.146,1.565,8.77.089,4.832.806,8.455a84.275,84.275,0,0,1,1.207,13.309c-.134,2.012,18.1,2.393,22.255-1.275,0,0-4.182-6.262-4.719-7.158s-.09-5.77.4-7.023,3.768-11.9,3.768-11.9,2.679-8.18.259-10.061c-2.1-1.633-7.833-2.215-8.862-2.572A17.5,17.5,0,0,0,281.873,187.378Z" fill="#f7f7f7"/>
        </g>
        <g id="Group_69" data-name="Group 69">
          <path id="Path_1033" data-name="Path 1033" d="M280.846,194.558l-1.959-2.291,1.7-6.033A39.89,39.89,0,0,1,280.846,194.558Z" fill="#cfc3bc"/>
        </g>
        <g id="Group_70" data-name="Group 70">
          <path id="Path_1034" data-name="Path 1034" d="M280.336,183.663a76.47,76.47,0,0,1,.51,7.83s3.345,3.355,7.152-3.914a9.97,9.97,0,0,1-.4-7.078C288.809,176.419,280.336,183.663,280.336,183.663Z" fill="#dba585"/>
        </g>
        <g id="Group_71" data-name="Group 71">
          <path id="Path_1035" data-name="Path 1035" d="M280.846,191.493v3.065l3.85-2.877Z" fill="#dba585"/>
        </g>
        <g id="Group_72" data-name="Group 72">
          <path id="Path_1036" data-name="Path 1036" d="M280.846,194.558l1.6-1.979,5.387-5.369,1.744,1.678Z" fill="#cfc3bc"/>
        </g>
        <g id="Group_73" data-name="Group 73">
          <path id="Path_1037" data-name="Path 1037" d="M288.579,187.724s-4.521,6.861-4.737,9.881,1.68,25.607,3.2,32.867,12.49-.818,12.49-.818-7.373-11.934-4.542-21.488,3.858-13.373,3.858-13.373-.974-5.322-4.425-6.07C291.4,188.065,288.579,187.724,288.579,187.724Z" fill="#0e538c"/>
        </g>
        <g id="Group_74" data-name="Group 74">
          <path id="Path_1038" data-name="Path 1038" d="M271.018,197.956s-.814,2.887,2.362,9.266c0,0-.051,8.16-.141,10.709s-.692,12.191-.692,12.191l3.141,1.842a.888.888,0,0,0,1.329-.873c-.891-7.338-3.784-35.172,2.467-42.654l-2.509.74A20.317,20.317,0,0,0,271.018,197.956Z" fill="#0e538c"/>
        </g>
        <g id="Group_75" data-name="Group 75">
          <path id="Path_1039" data-name="Path 1039" d="M285.952,174.548a1.178,1.178,0,0,1,1.743-.5c.537.4.852,1.609,0,3.176S283.85,179.882,285.952,174.548Z" fill="#dba585"/>
        </g>
        <g id="Group_76" data-name="Group 76">
          <path id="Path_1040" data-name="Path 1040" d="M278.887,192.267l-2.465.681,4.166-6.715Z" fill="#d3d3d3"/>
        </g>
        <g id="Group_77" data-name="Group 77">
          <path id="Path_1041" data-name="Path 1041" d="M282.443,192.579l2.253,2.953,4.626-7.711-1.492-.611Z" fill="#d3d3d3"/>
        </g>
        <g id="Group_78" data-name="Group 78">
          <path id="Path_1042" data-name="Path 1042" d="M280.469,184.962l.111,1.186s2.659.5,6.14-3.75A7.556,7.556,0,0,1,280.469,184.962Z" fill="#997761"/>
        </g>
        <g id="Group_80" data-name="Group 80">
          <g id="Group_79" data-name="Group 79">
            <path id="Path_1043" data-name="Path 1043" d="M261.271,246.212s.582-2.268,1.312-2.6.564.49.564.49.148-.822.827-.777.434,1.008.434,1.008a.675.675,0,0,1,.927-.3c.644.287.256,1.041.256,1.041s.871-.621,1.08.225a3.62,3.62,0,0,1-.718,2.773.8.8,0,0,1-.933-.018.954.954,0,0,1-1.486-.084s-1.158.307-1.271-.656C262.263,247.306,260.929,247.517,261.271,246.212Z" fill="#ebb18f"/>
          </g>
        </g>
        <path id="Path_1044" data-name="Path 1044" d="M285.173,216.4l5.119-8.258s-4.364,5.154-4.819,5.707-.493.594-.493.594S285.111,216.122,285.173,216.4Z" fill="#2f386c"/>
        <g id="Group_81" data-name="Group 81">
          <path id="Path_1045" data-name="Path 1045" d="M252.993,214.489a2.012,2.012,0,0,0-1.161-.66c-.541-.02-.965.424-1.421.717-.64.41-1.419.541-2.088.9a3.192,3.192,0,0,0-1.6,2.045,2.757,2.757,0,0,0,.644,2.488,7.621,7.621,0,0,1,.952.949c.22.334.3.742.5,1.09a.882.882,0,0,0,.983.5,1.419,1.419,0,0,0,.53-.482,4.013,4.013,0,0,1,2.57-1.211c.96-.127,1.935-.066,2.9-.146a1.521,1.521,0,0,0,1.295-.619c.25-.488-.049-1.068-.343-1.535-.753-1.2.235-1.674-.519-2.875-.258,0-2.215-.635-2.475-.7A2.006,2.006,0,0,1,252.993,214.489Z" fill="#f2b793"/>
          <path id="Path_1046" data-name="Path 1046" d="M246.735,217.421a5.2,5.2,0,0,1,1-1.422,3.592,3.592,0,0,1,1.171-.758,1.627,1.627,0,0,1,.833-.223,1.447,1.447,0,0,1,.835.258,2.4,2.4,0,0,0,1.064.412c.347.023.893-.145.913-.492.012-.217-.4-.424-.543-.588a3.223,3.223,0,0,0-2.291-1.207,5.919,5.919,0,0,0-1.346.359c-.32.094-.685.164-1,.26a7.368,7.368,0,0,0-2.408,1.125c-.464.355-1.6,1.719-.83,2.248C244.875,217.9,246.393,218.19,246.735,217.421Z" fill="#f4a086"/>
          <path id="Path_1047" data-name="Path 1047" d="M253.219,220.788a4.2,4.2,0,0,1-2.951,1.885.565.565,0,0,1-.521-.055,1.064,1.064,0,0,1-.154-.23.342.342,0,0,1-.056-.184.317.317,0,0,1,.1-.2c.076-.062.188-.059.244-.146a.79.79,0,0,0,.086-.225.7.7,0,0,1,.312-.424c.207-.111.44.021.611-.234a.71.71,0,0,1,.266-.277c.331-.131.482.072.681-.068.091-.064.146-.236.258-.293a.768.768,0,0,1,.32-.09C252.729,220.22,253.325,220.372,253.219,220.788Z" fill="#f4a086"/>
        </g>
        <path id="Path_1048" data-name="Path 1048" d="M287.636,200c1.159-2.576.587-6.387,4.034-8.34,2.608-1.479,3.147-3.43,5.19-1.508s2.451,6.453,1.95,9c-.574,2.9-3.285,12.225-4.9,14.416-1.642,2.225-2.5,3.512-5.318,4.627-2.272.9-5.657.982-8.337,1.252q-2.158.219-4.329.387c-1.31.1-11.029.6-12.467.779-.275.035-4.625-.088-4.884-.174-.379-.125-1.261-.088-1.477-.377a3.567,3.567,0,0,1-.694-1.463l-.354-3.984c.15-.039,7.033-.42,7.264-.424A94.024,94.024,0,0,0,273,213.4c.76-.1,7.5-.873,8.175-1.125.558-.207,2.1-.664,2.271-1.271a7.932,7.932,0,0,0,1.774-2.857C285.97,206.063,286.722,202.034,287.636,200Z" fill="#0e538c"/>
        <path id="Path_1049" data-name="Path 1049" d="M193.1,310.938a22.617,22.617,0,0,1-1.956,3.082c-.771.877-5.843,5.422-5.859,8.025-.017,2.82,5.665.531,9.06-1.047,1.777-.826,2.1-1.611,2.93-3.207s1.655-1.328,1.81-2.615a15.223,15.223,0,0,0-.8-4.238Z" fill="#0b4870"/>
        <g id="Group_82" data-name="Group 82">
          <path id="Path_1050" data-name="Path 1050" d="M222.9,310.683s2.412,2.693,4.86,3.258,6.369,3.066,6.389,4.611-9.256.781-12.059-.777c-4.182-2.326-4.607-1.623-5.072-2.787s.558-4.271.527-4.639C217.509,309.89,222.9,310.683,222.9,310.683Z" fill="#0b4870"/>
        </g>
        <g id="Group_83" data-name="Group 83">
          <path id="Path_1051" data-name="Path 1051" d="M222.627,309.394a11.018,11.018,0,0,1,.272,1.289c-.048.025-5.52.678-5.354-.334.135-.822.325-1.715.325-1.715Z" fill="#807f7d"/>
        </g>
        <g id="Group_84" data-name="Group 84">
          <path id="Path_1052" data-name="Path 1052" d="M198.213,310.087a11.124,11.124,0,0,1,.186,1.232c-.045.029-5.549,1.012-5.519.014a4.793,4.793,0,0,1,.508-1.719Z" fill="#807f7d"/>
        </g>
        <g id="Group_85" data-name="Group 85">
          <path id="Path_1053" data-name="Path 1053" d="M217.652,233.856s1.99,19.324,3.026,25.941c1.208,7.736,1.619,14.127,1.956,18.129.424,5.035.506,29.807.8,31.279s-6.593.408-6.593.408-3.388-32.367-4.653-37.73c-1.176-4.994-5.546-26.492-6.619-25.129s-2.4,25.09-3.2,29.027-3.214,34.771-3.214,34.771-5.482,1.092-6.941-.143c0,0-.663-26.57-.157-33.955.194-2.814-3.3-33.74,1.179-46.189C195.6,223.687,217.652,233.856,217.652,233.856Z" fill="#0e538c"/>
        </g>
        <g id="Group_86" data-name="Group 86">
          <path id="Path_1054" data-name="Path 1054" d="M199.79,229.573s1.328-2.008,2.732-2.266-19.368-10.3-19.312-13.889c.042-2.91,7.274-8.277,7.274-8.277h0a.4.4,0,0,0,0-.049h0c.158.576,2.52,9.172,2.594,13,.08,3.975-.237,17.652-.237,17.652l5.325,1.426,17.008.158,3.883-1.584s-.425-4.4-.582-7.486c-.1-1.963-.479-5.479-.381-8.9a31.515,31.515,0,0,1,.295-5.164c.038-6.859.454-13.652.454-13.652q.345-4.666.482-8.732c-.751-.4-1.651-.861-2.376-1.2-2.232-1.064-5.346-2.5-7.344-3.416-1.17-.535-2.314-.928-2.314-.928s-7.983-.766-8.632-.725a20.408,20.408,0,0,0-2.511.859,91.592,91.592,0,0,0-9.158,3.887c-1.275.91-9.619,22.988-9.74,24.506C177.031,217.524,199.79,229.573,199.79,229.573Z" fill="#f7f7f7"/>
        </g>
        <path id="Path_1055" data-name="Path 1055" d="M218.544,234.3a141.549,141.549,0,0,1-21.915,0v3.357s15.238,1.455,22.428-.641Z" fill="#0e538c"/>
        <g id="Group_87" data-name="Group 87">
          <path id="Path_1056" data-name="Path 1056" d="M208.579,186.751s1.9,4.465,3.326,14.443c.548,3.832,1.564,10.285,2.3,16.871h0c.582,5.191,1.909,10.52,2.332,14.492.438,4.117,1.754,16.246,1.754,16.246l3.2-2.016c.458-.422,1.1-.969.911-1.562-.878-2.838-2.562-12.217-3.554-20.393,0-.006,0-.012,0-.018q-.07-.593-.138-1.172c0-.02,0-.041-.007-.062-.188-1.635-.343-3.2-.454-4.637a14.586,14.586,0,0,1,.143-3.225c.444-7.34.666-15.074.666-15.074.235-3.17.369-6.129.459-8.885C219.512,191.761,209.487,187.022,208.579,186.751Z" fill="#0b4870"/>
        </g>
        <g id="Group_88" data-name="Group 88">
          <path id="Path_1057" data-name="Path 1057" d="M185.6,212.4c-1.388,3.037,12.715,8.455,12.4,9.2a34.293,34.293,0,0,1-3.876,5.461s-18.565-9.186-18.356-11.266c.15-1.516,8.848-24.434,10.122-25.348.736-.527,6.188-2.461,8.864-3.518.49-.193,2.159-.818,2.6-.986.568.633,4.48,4.949,5.862,21.262.232,2.75-.5,8.57-.994,13.322-.523,5.07-1.1,9.027-1.529,13.268-.837,8.352-1.423,15-1.423,15l-8.314-3.7c-1.344-.672-3.672-2.43-3.165-3.846,1.922-5.383,4.806-15.584,4.808-20.307,0,0-1.358-13.035-2.094-15.576A32.881,32.881,0,0,0,185.6,212.4Z" fill="#0b4870"/>
        </g>
        <g id="Group_89" data-name="Group 89">
          <path id="Path_1058" data-name="Path 1058" d="M199.4,186.388a56.16,56.16,0,0,0-1.109-8.285c-.283-1.486,8.616,3.9,8.616,3.9s-.028.521-.046,1.223c-.01.371-.016.793-.013,1.213,0,.15,0,.3.006.443.008.393.026.768.06,1.088a5.2,5.2,0,0,0,.3,1.068C207.574,187.89,202.4,188.532,199.4,186.388Z" fill="#dba686"/>
        </g>
        <path id="Path_1059" data-name="Path 1059" d="M204.952,189.259l1.475,1.982a1.79,1.79,0,0,1-2.4.3Z" fill="#ffbe55" opacity="0.9"/>
        <path id="Path_1060" data-name="Path 1060" d="M206.032,191.321s5.6,21.541,4.441,38.309l-1.882,3.316-1.762-3.475s-1.336-29.992-2.869-38.2Z" fill="#ffbe55" opacity="0.9"/>
        <path id="Path_1061" data-name="Path 1061" d="M206.531,187.411l-1.579,1.848s-2.535-.492-3.279-1.814S206.531,187.411,206.531,187.411Z" fill="#dba686"/>
        <path id="Path_1062" data-name="Path 1062" d="M206.894,185.794a7.628,7.628,0,0,1-1.941,3.465l1.919,2.58,1.039-5.35Z" fill="#d3d3d3"/>
        <path id="Path_1063" data-name="Path 1063" d="M199.228,184.226s3.16,4.02,5.725,5.033l-1.192,2.947-5.446-6.584Z" fill="#d3d3d3"/>
        <g id="Group_90" data-name="Group 90">
          <path id="Path_1064" data-name="Path 1064" d="M245.917,218.9s-14.378-2.014-17.569-2.8c-1.476-.361-3.417-2.4-5.265-4.793-.608-.789-1.206-1.615-1.773-2.436,0,0,0,0,0,0-2.265-3.27-4.04-6.4-4.04-6.4s-6.7-7.846-1.322-11.344a8.937,8.937,0,0,1,3.565.637c1.3.7,4.069,6.486,4.538,7.51s5.559,10.531,5.9,10.746,5.419,1.316,7.683,1.789c3.279.684,9.438,1.963,9.438,1.963Z" fill="#0b4870"/>
        </g>
        <path id="Path_1065" data-name="Path 1065" d="M200.8,229.819a3.088,3.088,0,0,1-.971-.184s-.508-.326-.883-.535a3.312,3.312,0,0,0-.3-.15,5.628,5.628,0,0,1-1.635-.779c-.639-.486-2.725-2.438-2.725-2.438l1.348-2.072.621-2.053s4.863.482,5.513.869c.062.039.124.078.178.119a7.145,7.145,0,0,1,.992,1.109c.092.086.937.992.892,1.359a1.213,1.213,0,0,1-.635.994,2.9,2.9,0,0,1-.685,1.438,1.808,1.808,0,0,1-.926,1.293S201.354,229.71,200.8,229.819Z" fill="#dca787"/>
        <path id="Path_1066" data-name="Path 1066" d="M194.117,227.069a17.017,17.017,0,0,0,4.17-5.461l-8.3-4.545-3.08,6.271Z" fill="#0b4870"/>
        <g id="Group_91" data-name="Group 91">
          <path id="Path_1067" data-name="Path 1067" d="M211.59,168.362s1.954,3.627.984,4.189c-.8.465.938,4.023,1.166,4.6s-1.45,1-1.807,1.379-1.412,4.977-2.795,5.113-7.608-2.025-9.3-3.789-3.085-9.725-1.954-13.082S208.138,162.03,211.59,168.362Z" fill="#dba585"/>
        </g>
        <g id="Group_92" data-name="Group 92">
          <path id="Path_1068" data-name="Path 1068" d="M211.979,169.149a25,25,0,0,0,.549-5.938c0-1.768-12.486,1.311-13.24,1.506s-5.027.488-2.87,7.994c1.854,6.443,2.113,6.713,2.113,6.713s1.383-3.73,2.167-4.3c1.225-.889,3.907-.676,3.907-.676s-1.279-3.4.721-3.875S209.957,168.4,211.979,169.149Z" fill="#0b4870"/>
        </g>
        <g id="Group_93" data-name="Group 93">
          <path id="Path_1069" data-name="Path 1069" d="M202.865,173.517c-.177-.467-.748-2.469-2.464-1.293s1.069,4.949,1.368,5S204.349,177.435,202.865,173.517Z" fill="#dba585"/>
        </g>
        <path id="Path_1070" data-name="Path 1070" d="M206.845,184.442c0,.15,0,.3.006.443-5.091-1.709-6.077-4.279-6.077-4.279a34.744,34.744,0,0,0,6.084,2.623C206.848,183.6,206.842,184.022,206.845,184.442Z" fill="#997761"/>
        <g id="Group_94" data-name="Group 94">
          <path id="Path_1071" data-name="Path 1071" d="M147.165,186.581s3.318,1.984,4.119,5.1-.083,7.027-.177,8.4.733,15.021.977,15.451a93.287,93.287,0,0,1,4.975,11.357,70.975,70.975,0,0,0,4.971,10.6l-5.3,2.283s-10.387-16.369-11.057-20.926c-.717-4.865-3.727-19.3-3.727-19.3S139.341,187.194,147.165,186.581Z" fill="#d3d3d3"/>
        </g>
        <path id="Path_1072" data-name="Path 1072" d="M151.778,163.6a8.682,8.682,0,0,1,8.9,8.211,21.233,21.233,0,0,1-.741,3.25c-.484,1.426.685,5.7.343,5.9a9.392,9.392,0,0,1-1.74.428s-1.625,4.59-3.25,4.5a13.478,13.478,0,0,1-10.482-7.375C142.064,172.673,141.42,163.808,151.778,163.6Z" fill="#eea886"/>
        <path id="Path_1073" data-name="Path 1073" d="M282.859,164.718a8.1,8.1,0,0,0-8.3,7.658,19.719,19.719,0,0,0,.691,3.031c.452,1.328-.638,5.316-.319,5.5a8.688,8.688,0,0,0,1.623.4s1.516,4.281,3.031,4.2a12.581,12.581,0,0,0,9.776-6.879C291.92,173.181,292.521,164.913,282.859,164.718Z" fill="#dea787"/>
        <path id="Path_1074" data-name="Path 1074" d="M160.674,171.81a23.02,23.02,0,0,1-8.383,3.174c-4.143.457-6.9,4.643-6.9,4.643s-6.062-8.064-.816-14.3S161.795,163.921,160.674,171.81Z" fill="#0e538c"/>
        <path id="Path_1075" data-name="Path 1075" d="M147.333,167.718c-1.774,2.5-4.739,3.434-6.62,2.094s-1.969-4.447-.2-6.941,4.741-3.434,6.623-2.1S149.108,165.224,147.333,167.718Z" fill="#0e538c"/>
        <path id="Path_1076" data-name="Path 1076" d="M146.135,185.894a20.308,20.308,0,0,0,0-5.162s7.717,3.566,6.38,4.533a2.421,2.421,0,0,0-.753,1.316,15.063,15.063,0,0,0-.339,4.057l2.56,3.049C156.242,196.788,145.942,186.921,146.135,185.894Z" fill="#eea886"/>
        <path id="Path_1077" data-name="Path 1077" d="M150.582,174.747a1.272,1.272,0,0,0-2.2-.971c-1.341,1.057.312,4.9,1.4,4.562S150.582,175.573,150.582,174.747Z" fill="#eea886"/>
        <path id="Path_1078" data-name="Path 1078" d="M152.515,185.265a2.421,2.421,0,0,0-.753,1.316,13.278,13.278,0,0,1-4.51-4.568C148.885,184.026,152.515,185.265,152.515,185.265Z" fill="#a77860"/>
        <g id="Group_98" data-name="Group 98">
          <path id="Path_1079" data-name="Path 1079" d="M270.2,161.876H249.646a5.672,5.672,0,0,1-5.656-5.656v-9.426a5.674,5.674,0,0,1,5.656-5.658H270.2a5.676,5.676,0,0,1,5.657,5.658v9.426A5.674,5.674,0,0,1,270.2,161.876Z" fill="#ffbe55" opacity="0.9"/>
          <g id="Group_95" data-name="Group 95">
            <path id="Path_1080" data-name="Path 1080" d="M250.046,148.019h0Z" fill="#fff"/>
            <path id="Path_1081" data-name="Path 1081" d="M269.844,148.784h-19.8a.765.765,0,0,1,0-1.53h19.8a.765.765,0,1,1,0,1.53Z" fill="#fff"/>
          </g>
          <g id="Group_96" data-name="Group 96">
            <path id="Path_1082" data-name="Path 1082" d="M250.046,151.767h0Z" fill="#fff"/>
            <path id="Path_1083" data-name="Path 1083" d="M269.844,152.532h-19.8a.765.765,0,0,1,0-1.53h19.8a.765.765,0,1,1,0,1.53Z" fill="#fff"/>
          </g>
          <g id="Group_97" data-name="Group 97">
            <path id="Path_1084" data-name="Path 1084" d="M250.046,155.517h0Z" fill="#fff"/>
            <path id="Path_1085" data-name="Path 1085" d="M269.844,156.28h-19.8a.764.764,0,1,1,0-1.528h19.8a.764.764,0,1,1,0,1.528Z" fill="#fff"/>
          </g>
          <path id="Path_1086" data-name="Path 1086" d="M260.66,170.974l-8.8-9.655h7.552Z" fill="#ffbe55" opacity="0.9"/>
        </g>
        <g id="Group_102" data-name="Group 102">
          <path id="Path_1087" data-name="Path 1087" d="M207.264,148.062H227.82a5.674,5.674,0,0,0,5.657-5.658v-9.426a5.675,5.675,0,0,0-5.657-5.656H207.264a5.675,5.675,0,0,0-5.657,5.656V142.4A5.673,5.673,0,0,0,207.264,148.062Z" fill="#ffbe55" opacity="0.9"/>
          <g id="Group_99" data-name="Group 99">
            <path id="Path_1088" data-name="Path 1088" d="M227.419,134.2h0Z" fill="#fff"/>
            <path id="Path_1089" data-name="Path 1089" d="M207.621,134.97h19.8a.766.766,0,0,0,0-1.532h-19.8a.766.766,0,0,0,0,1.532Z" fill="#fff"/>
          </g>
          <g id="Group_100" data-name="Group 100">
            <path id="Path_1090" data-name="Path 1090" d="M227.419,137.952h0Z" fill="#fff"/>
            <path id="Path_1091" data-name="Path 1091" d="M207.621,138.718h19.8a.765.765,0,0,0,0-1.53h-19.8a.765.765,0,0,0,0,1.53Z" fill="#fff"/>
          </g>
          <g id="Group_101" data-name="Group 101">
            <path id="Path_1092" data-name="Path 1092" d="M227.419,141.7h0Z" fill="#fff"/>
            <path id="Path_1093" data-name="Path 1093" d="M207.621,142.466h19.8a.765.765,0,0,0,0-1.53h-19.8a.765.765,0,0,0,0,1.53Z" fill="#fff"/>
          </g>
          <path id="Path_1094" data-name="Path 1094" d="M216.806,157.159l8.8-9.656h-7.55Z" fill="#ffbe55" opacity="0.9"/>
        </g>
        <g id="Group_104" data-name="Group 104">
          <g id="Group_103" data-name="Group 103">
            <path id="Path_1095" data-name="Path 1095" d="M162.973,215.985a17.041,17.041,0,0,0,.449-3.186c-.115-.6.713-1.02.817.449s.155,2.406.155,2.406Z" fill="#eea886"/>
          </g>
        </g>
        <path id="Path_1096" data-name="Path 1096" d="M169.867,221.856h-5.4l-.843-11.955h7Z" fill="#ffbe55" opacity="0.9"/>
        <g id="Group_106" data-name="Group 106">
          <g id="Group_105" data-name="Group 105">
            <path id="Path_1097" data-name="Path 1097" d="M162.757,216.6s-.044-.916,1.739-1.68c2.368-1.012,5.515-2.012,6.033-1.7.744.449.328,1.014-1.161,1.438s-1.979.559-1.979.559,2.885-.156,3.515.215.633,1.164.158,1.275a12.066,12.066,0,0,1-1.591.146s1.217.094,1.318.59c.075.363.1.885-1.063,1.053,0,0,.748.9-.448,1.408a20.466,20.466,0,0,1-4.414,1.061,30.312,30.312,0,0,1-6.44-.455l1.408-3.143a3.735,3.735,0,0,0,2,.037C162.883,216.991,162.757,216.6,162.757,216.6Z" fill="#eea886"/>
          </g>
        </g>
        <path id="Path_1098" data-name="Path 1098" d="M146.589,185.9s4.562,4.334,6.273,6.271,7.3,8.953,7.812,11.062-1.521,5.156-2.908,6.615c-1.274,1.34-.229,4.447-.4,6.215s-.808,19.506-1.436,21.275-16.562,3.557-22.093-2.432c0,0,5.964-12.855,7.675-14.852s-1.311-14.77-2.338-17.793S140.089,185.782,146.589,185.9Z" fill="#f7f7f7"/>
        <path id="Path_1099" data-name="Path 1099" d="M147.008,188.442a4.229,4.229,0,0,0-5.1,3.535c-.569,3.459-.8,7.3-1.329,9.16s-3.06,12.371-1.92,13.055,3.474,1.42,6.156,2.828c2.568,1.35,15.054,6.592,15.054,6.592l.972-6.545a24.959,24.959,0,0,1-4.562-1.635c-2.167-1.064-6.615-3.916-10.6-6.387,0,0,1.71-6.881,2.242-8.324S152.178,190.114,147.008,188.442Z" fill="#d3d3d3"/>
        <rect id="Rectangle_24" data-name="Rectangle 24" width="7.465" height="1.426" transform="translate(163.395 209.188)" fill="#0b4870"/>
        <g id="Group_107" data-name="Group 107">
          <path id="Path_1100" data-name="Path 1100" d="M317.99,308.241s-1.636,1.166-2.542,1.984a8.517,8.517,0,0,0-2.893,3.793c-.764,2.111-2.274,5.252-.231,5.379s7.894-3.045,8.2-4.916c.3-1.854,2.7-1.635,3.017-2.953a7.233,7.233,0,0,0-.105-2.941Z" fill="#2a94f4"/>
        </g>
        <g id="Group_108" data-name="Group 108">
          <path id="Path_1101" data-name="Path 1101" d="M318.262,306.708l-.271,1.533s.842,1.559,5.443.346l-.237-1.51Z" fill="#81807e"/>
        </g>
        <path id="Path_1102" data-name="Path 1102" d="M323.434,308.587s-1.037.137-1.775.254-2.2-.83-3.668-.6l.451,1.863S323.331,309.188,323.434,308.587Z" fill="#0b4870"/>
        <g id="Group_109" data-name="Group 109">
          <path id="Path_1103" data-name="Path 1103" d="M347.386,307.935s1.636,1.168,2.541,1.984a8.522,8.522,0,0,1,2.894,3.793c.764,2.111.628,5.562-1.416,5.688s-6.246-3.352-6.551-5.223c-.3-1.854-2.7-1.637-3.017-2.953a7.234,7.234,0,0,1,.1-2.943Z" fill="#2a94f4"/>
        </g>
        <g id="Group_110" data-name="Group 110">
          <path id="Path_1104" data-name="Path 1104" d="M347.113,306.4l.272,1.531s-.843,1.559-5.444.346l.237-1.51Z" fill="#81807e"/>
        </g>
        <g id="Group_111" data-name="Group 111">
          <path id="Path_1105" data-name="Path 1105" d="M349.316,271.53c0,3.371-.482,35.15-.482,35.15-.337,1.123-6.631,1.492-7.754.93s-.926-32.076-1.134-35.473-2.937-28.387-3.921-28.273-6.551,23.652-7.337,26.234-3.88,37.332-3.88,37.332a14.1,14.1,0,0,1-7.767.162s1.468-35.193,1.469-39.373c0-1.553.458-2.725.9-10.971.335-6.285,2.084-19.166,3.254-28.027.042-.314.081-.617.122-.908.228-1.725.4-2.992.482-3.6.036-.264.057-.4.057-.4.313-.146.645-.279.988-.4,8.223-2.953,24.085.174,24.085.174l.026.225c.022.178.055.457.1.818.09.781.227,1.945.384,3.3,0,.01,0,.02,0,.029,0,.039.009.082.014.123.554,4.8.828,7.445,1.263,12.574C350.28,242.272,349.316,268.163,349.316,271.53Z" fill="#d3d3d3"/>
        </g>
        <path id="Path_1106" data-name="Path 1106" d="M341.941,308.28s1.038.137,1.775.254,2.2-.828,3.669-.6l-.452,1.865S342.045,308.884,341.941,308.28Z" fill="#0b4870"/>
        <g id="Group_112" data-name="Group 112">
          <path id="Path_1107" data-name="Path 1107" d="M274.525,171.442s-.355-7.943,7.542-8.223,10.021,6.227,9.374,10.963a11.592,11.592,0,0,1-3.915,7.238s.282-3.834-1.25-4.83-7.673-2.98-10.35-7.6A7.144,7.144,0,0,0,274.525,171.442Z" fill="#0e538c"/>
        </g>
        <g id="Group_113" data-name="Group 113">
          <path id="Path_1108" data-name="Path 1108" d="M342.129,223.751s-1.327-2.008-2.732-2.266,19.369-10.3,19.312-13.887c-.042-2.912-7.274-8.277-7.274-8.277h0s0-.053,0-.051h0c-.157.576-2.519,9.172-2.593,13-.08,3.977.236,17.654.236,17.654l-5.324,1.426-17.008.156-3.883-1.582s.425-4.4.581-7.488c.1-1.963.479-5.479.382-8.9a31.6,31.6,0,0,0-.3-5.162c-.039-6.859-.455-13.654-.455-13.654q-.345-4.663-.482-8.73c.752-.4,1.652-.861,2.376-1.205,2.233-1.064,5.347-2.5,7.344-3.416,1.17-.535,2.314-.928,2.314-.928s7.983-.764,8.632-.723a20.608,20.608,0,0,1,2.511.857,91.63,91.63,0,0,1,9.159,3.887c1.274.912,9.619,22.99,9.74,24.508C364.889,211.7,342.129,223.751,342.129,223.751Z" fill="#cce9ff"/>
        </g>
        <g id="Group_114" data-name="Group 114">
          <path id="Path_1109" data-name="Path 1109" d="M322.408,185.522c.09,2.758.224,5.717.458,8.885,0,0,.222,7.736.667,15.076a14.755,14.755,0,0,1,.143,3.223c-.111,1.436-.267,3-.454,4.639,0,.02-.005.041-.007.061-.045.389-.092.777-.139,1.172,0,.006,0,.012,0,.018-.993,8.176-2.676,17.557-3.555,20.393-.186.594.454,1.141.911,1.564l3.2,2.014s1.316-12.129,1.753-16.246c.423-3.973,1.751-9.3,2.333-14.49v0c.736-6.586-.1-12.463.445-16.295,1.426-9.98,5.183-15.018,5.183-15.018C332.433,180.784,322.408,185.522,322.408,185.522Z" fill="#0b4870"/>
        </g>
        <g id="Group_115" data-name="Group 115">
          <path id="Path_1110" data-name="Path 1110" d="M356.324,206.169c1.387,3.037-12.715,8.453-12.4,9.2.764,1.8,3.875,5.461,3.875,5.461s18.565-9.184,18.357-11.266c-.151-1.516-8.848-24.434-10.123-25.348-.736-.527-6.188-2.461-8.864-3.518-.49-.191-2.158-.818-2.6-.984-.568.631-4.479,4.949-5.862,21.262-.232,2.748.5,8.57.995,13.322.522,5.068,1.1,9.025,1.528,13.266.838,8.352,1.424,15,1.424,15l8.314-3.7c1.344-.674,3.671-2.43,3.164-3.846-1.921-5.383-4.8-15.584-4.808-20.309,0,0,1.358-13.035,2.094-15.576A32.905,32.905,0,0,1,356.324,206.169Z" fill="#0b4870"/>
        </g>
        <g id="Group_116" data-name="Group 116">
          <path id="Path_1111" data-name="Path 1111" d="M342.522,180.149a56.1,56.1,0,0,1,1.11-8.285c.283-1.484-8.617,3.9-8.617,3.9s.028.521.047,1.225c.01.369.015.791.013,1.211,0,.15,0,.3-.006.443-.009.393-.026.77-.061,1.088a5.155,5.155,0,0,1-.3,1.07C334.346,181.651,339.525,182.294,342.522,180.149Z" fill="#fcd2b1"/>
        </g>
        <path id="Path_1112" data-name="Path 1112" d="M336.967,183.021s-6.675,23.6-5.521,40.371l1.882,3.318,1.763-3.477s1.335-29.992,2.869-38.2Z" fill="#ffbe55" opacity="0.9"/>
        <path id="Path_1113" data-name="Path 1113" d="M335.389,181.175l1.578,1.846s2.535-.49,3.28-1.814S335.389,181.175,335.389,181.175Z" fill="#fcd2b1"/>
        <path id="Path_1114" data-name="Path 1114" d="M335.025,179.558a7.618,7.618,0,0,0,1.941,3.463l-1.918,2.58-1.039-5.35Z" fill="#0b4870"/>
        <path id="Path_1115" data-name="Path 1115" d="M342.692,177.989s-3.161,4.018-5.726,5.031l1.193,2.947,5.446-6.582Z" fill="#0b4870"/>
        <path id="Path_1116" data-name="Path 1116" d="M347.8,220.831a16.994,16.994,0,0,1-4.169-5.461l8.3-4.543,3.08,6.27Z" fill="#0b4870"/>
        <g id="Group_120" data-name="Group 120">
          <g id="Group_117" data-name="Group 117">
            <path id="Path_1117" data-name="Path 1117" d="M330.33,162.126s-1.954,3.625-.985,4.188c.8.467-.938,4.025-1.166,4.6s1.45,1,1.807,1.377,1.413,4.977,2.8,5.115,7.607-2.027,9.3-3.789,3.086-9.725,1.954-13.084S333.781,155.794,330.33,162.126Z" fill="#fcd2b1"/>
          </g>
          <g id="Group_118" data-name="Group 118">
            <path id="Path_1118" data-name="Path 1118" d="M329.94,162.911s-3.973-4.02-.548-5.936c9.774-5.469,12.486,1.311,13.24,1.5s5.026.488,2.87,7.994c-1.854,6.445-2.114,6.715-2.114,6.715s-1.383-3.732-2.166-4.3c-1.225-.889-3.908-.674-3.908-.674s1.279-3.4-.72-3.877S331.963,162.161,329.94,162.911Z" fill="#0b4870"/>
          </g>
          <g id="Group_119" data-name="Group 119">
            <path id="Path_1119" data-name="Path 1119" d="M339.054,167.278c.178-.467.748-2.467,2.464-1.291s-1.068,4.947-1.368,5S337.571,171.2,339.054,167.278Z" fill="#fcd2b1"/>
          </g>
        </g>
        <path id="Path_1120" data-name="Path 1120" d="M335.075,178.2c0,.15,0,.3-.006.443,5.09-1.709,6.077-4.277,6.077-4.277a34.745,34.745,0,0,1-6.084,2.623C335.072,177.362,335.077,177.784,335.075,178.2Z" fill="#997761"/>
        <g id="Group_121" data-name="Group 121">
          <path id="Path_1121" data-name="Path 1121" d="M351.4,221.435l-25.222,16.99-10.9-16.19,24.8-17.621Z" fill="#ffbe55" opacity="0.9"/>
          <path id="Path_1122" data-name="Path 1122" d="M349.36,221.444l-22.4,15.09-9.686-14.379,22.025-15.65Z" fill="#f7f7f7"/>
          <path id="Path_1123" data-name="Path 1123" d="M345.807,217.368l1.572-1.058-3.916-5.811-1.725.83Z" fill="#0b4870"/>
        </g>
        <path id="Path_1124" data-name="Path 1124" d="M335.537,234.032a2.967,2.967,0,0,1-.733-.611s-.277-.518-.495-.869c-.07-.113-.134-.207-.18-.268a5.484,5.484,0,0,1-1.016-1.428c-.312-.713-1.157-3.344-1.157-3.344l2.116-1.119,1.655-.9s3.72,2.158,4.086,2.791a1.923,1.923,0,0,1,.1.186,6.7,6.7,0,0,1,.316,1.4c.039.115.326,1.281.112,1.568a1.159,1.159,0,0,1-1,.539,2.813,2.813,0,0,1-1.256.9,1.749,1.749,0,0,1-1.391.656S336.057,234.2,335.537,234.032Z" fill="#eea886"/>
        <g id="Group_122" data-name="Group 122">
          <path id="Path_1125" data-name="Path 1125" d="M332.26,229.108s-14.67-10.059-16.614-13.279c-.9-1.49-.122-5.439.323-8.875.146-1.131.333-2.283.539-3.408,0,0,0,0,0,0,.817-4.482,1.922-8.459,1.922-8.459s.942-11.777,8.127-10.254a10.274,10.274,0,0,1,2.369,3.406c.479,1.623-1.964,8.549-2.416,9.758s-4.037,13.029-3.935,13.477,4.035,4.625,5.912,6.492c3.494,3.475,8.3,8.291,8.3,8.291Z" fill="#0b4870"/>
        </g>
      </g>
      <text id="Get_started_with_us_to_volunteer_help_to_one_in_need_get_the_same_when_needed_._._." data-name="Get started with us to volunteer help to one in need &amp; get the same when needed . . ." transform="translate(29 408)" fill="#0b4870" font-size="19" font-family="GoogleSans-Regular, Google Sans"><tspan x="0" y="18">Get started with us to volunteer help </tspan><tspan x="0" y="48">to one in need &amp; get the same when </tspan><tspan x="0" y="78">needed . . .</tspan></text>
    </g>
  </g>
</svg>
