<svg xmlns="http://www.w3.org/2000/svg" xmlns:xlink="http://www.w3.org/1999/xlink" width="1920" height="1080" viewBox="0 0 1920 1080">
  <defs>
    <clipPath id="clip-Web_1920_1">
      <rect width="1920" height="1080"/>
    </clipPath>
  </defs>
  <g id="Web_1920_1" data-name="Web 1920 – 1" clip-path="url(#clip-Web_1920_1)">
    <rect width="1920" height="1080" fill="#fff"/>
    <path id="Path_1127" data-name="Path 1127" d="M0,0H1272.767V1079H0Z" transform="translate(0 1)" fill="#b6b6b6"/>
    <path id="Path_1128" data-name="Path 1128" d="M0,0H724.846V1080H0Z" transform="translate(1195.154 1)" fill="#0b4870"/>
    <rect id="Rectangle_25" data-name="Rectangle 25" width="1495" height="775" transform="translate(213 153)" fill="#f5f5f5"/>
    <text id="Help_Vault" data-name="Help Vault" transform="translate(1014 404)" fill="#0b4870" font-size="96" font-family="GoogleSans-Bold, Google Sans" font-weight="700"><tspan x="0" y="93">Help Vault</tspan></text>
    <text id="Platform_where_everyone_s_needs_are_met" data-name="Platform where everyone&apos;s needs are met" transform="translate(1014 565)" fill="#0b4870" font-size="32" font-family="GoogleSans-Bold, Google Sans" font-weight="700" opacity="0.7"><tspan x="0" y="31">Platform where everyone&apos;s </tspan><tspan x="0" y="71">needs are met</tspan></text>
    <g id="DESIGNED_BY_FREEPIK" transform="translate(254.428 204.812)">
      <g id="Group_50" data-name="Group 50" transform="translate(53.561 261.469) rotate(-19)" opacity="0.3">
        <path id="Path_1009" data-name="Path 1009" d="M412.831,300.006c-47.247-5.829-79.2,18.476-112.518,31.2-39.228,14.973-71.847-10.106-102.26-24.271-54.663-25.46-93.967,25.438-154.462-1.59-57.9-25.867-56.674-104.42-4.915-133.639S93.489,129.782,94.9,98.243,99.92,7.972,162.083,21.757c53.43,11.85,87.728,8.893,118-5.3s134.9-46.719,143.261,54.33c4,48.285,10.117,66.731,48.519,90.655s57.453,63.032,46.953,97.412C508.873,291.41,475.936,307.789,412.831,300.006Z" transform="translate(0 0)" fill="#ffbe55"/>
      </g>
      <g id="Group_53" data-name="Group 53" transform="translate(228.342 337.914)">
        <g id="Group_52" data-name="Group 52">
          <g id="Group_51" data-name="Group 51">
            <path id="Path_1010" data-name="Path 1010" d="M163.521,235.958a8.629,8.629,0,0,1,1.739,2.524,14.372,14.372,0,0,0,2.094,2.969,33.214,33.214,0,0,1,2.918,5.07c.118.387-.118,3.01.2,3.766s1.165,2.21.491,2.459-1.793-.85-1.793-.85a1.021,1.021,0,0,1-.27,1.1,1.758,1.758,0,0,1-1.744.437s-.224.884-.729,1.1a2.255,2.255,0,0,1-1.814.133,2.07,2.07,0,0,1-1.22.706,1.888,1.888,0,0,1-1.712-.606s-1.249.543-1.79.007a6.342,6.342,0,0,1-.942-1.727,21.849,21.849,0,0,1-.7-9.575c.778-3.986-2.27-7.07-2.27-7.07Z" transform="translate(-155.987 -235.958)" fill="#eea886"/>
          </g>
        </g>
      </g>
      <g id="Group_54" data-name="Group 54" transform="translate(224.766 349.351)">
        <path id="Path_1011" data-name="Path 1011" d="M174.286,260.389l-17.293-.457a3.184,3.184,0,0,1-3.1-3.266l.285-10.906a3.188,3.188,0,0,1,3.271-3.1l17.289.454a3.187,3.187,0,0,1,3.1,3.27l-.287,10.9A3.194,3.194,0,0,1,174.286,260.389Zm-16.9-15.591a1.049,1.049,0,0,0-1.075,1.024l-.287,10.9a1.049,1.049,0,0,0,1.022,1.073l17.291.457a1.056,1.056,0,0,0,1.077-1.024l.285-10.9a1.051,1.051,0,0,0-1.022-1.077Z" transform="translate(-153.891 -242.66)" fill="#0b4870"/>
      </g>
      <g id="Group_55" data-name="Group 55" transform="translate(212.304 361.579)">
        <rect id="Rectangle_21" data-name="Rectangle 21" width="46.28" height="46.496" transform="translate(1.218 0) rotate(1.501)" fill="#0b4870"/>
      </g>
      <g id="Group_56" data-name="Group 56" transform="translate(212.814 361.579)">
        <rect id="Rectangle_22" data-name="Rectangle 22" width="46.283" height="26.953" transform="translate(0.706 0) rotate(1.501)" fill="#0b4870"/>
      </g>
      <g id="Group_58" data-name="Group 58" transform="translate(230.722 347.441)">
        <g id="Group_57" data-name="Group 57">
          <path id="Path_1012" data-name="Path 1012" d="M168.252,247.438s-1.041-4.542-2.474-5.256-1.15.95-1.15.95-.251-1.647-1.6-1.59-.916,1.983-.916,1.983a1.347,1.347,0,0,0-1.826-.657c-1.3.543-.567,2.06-.567,2.06s-1.7-1.28-2.162.392c-.778,2.822,1.358,5.51,1.358,5.51s.578.6,1.79-.007a1.863,1.863,0,0,0,2.932-.1s2.268.674,2.543-1.234C166.173,249.491,168.629,250.071,168.252,247.438Z" transform="translate(-157.382 -241.541)" fill="#db9c7c"/>
        </g>
      </g>
      <path id="Path_1013" data-name="Path 1013" d="M157.3,242.661l-5.312,32.019-2.58-3.449S156.95,243.972,157.3,242.661Z" transform="translate(67.704 106.691)" fill="#122333"/>
      <g id="Group_59" data-name="Group 59" transform="translate(193.461 328.78)">
        <path id="Path_1014" data-name="Path 1014" d="M141.774,319.809c-1.447-2.06-.145-9.776,3.36-13a4.8,4.8,0,0,1,6.72-.16s2.037,4.93,3.643,6.29,8.72,10.619,11.177,11.085,7.355.787,7.554,1.829.319,6.106-6.664,6.269-8.819.036-10.517-1.671-8.365-6.612-10.2-6.57Z" transform="translate(-131.557 -177.819)" fill="#db9c7c"/>
        <path id="Path_1015" data-name="Path 1015" d="M166.781,320.619s-7.747,1.056-11.039-1.483-7.419-8.861-13.989-8.989c0,0-2.355,3.013,1.5,9.9,0,0,2.135,7.892,2.078,9.2l1.833-.043-.208-8.725a37.338,37.338,0,0,1,11.128,7.942s13.385,2.13,15.907-2.036a5.521,5.521,0,0,0,.776-4.119C174.151,320.227,166.781,320.619,166.781,320.619Z" transform="translate(-131.664 -174.416)" fill="#ffbe55" opacity="0.9"/>
        <path id="Path_1016" data-name="Path 1016" d="M140.1,231.9s-8.189,9.942,2.075,27.68c0,0,.877,9.064,1.053,12.469s2.37,16.127,1.189,22.306-5.027,15.452-3.589,24.313,8.008,34.449,6.744,41.007l7.285-.174s2.6-54.192,3.4-56.105,4.019-6.059,3.631-14.47,8.239-42.887,8.2-52.441S140.1,231.9,140.1,231.9Z" transform="translate(-134.513 -230.605)" fill="#db9c7c"/>
        <path id="Path_1017" data-name="Path 1017" d="M138.858,319.7c-1.394-2.1.089-9.778,3.667-12.921a4.805,4.805,0,0,1,6.72,0s1.923,4.976,3.493,6.372,8.469,10.825,10.913,11.348,7.334.962,7.508,2.01.176,6.109-6.809,6.109-8.819-.174-10.477-1.92-8.206-6.809-10.041-6.809Z" transform="translate(-133.573 -177.783)" fill="#eea886"/>
        <path id="Path_1018" data-name="Path 1018" d="M163.751,321.163s-7.769.874-11-1.746-7.21-9.032-13.774-9.319c0,0-2.425,2.959,1.264,9.938,0,0,1.949,7.935,1.858,9.245h1.833v-8.728a37.3,37.3,0,0,1,10.938,8.206S168.2,331.2,170.824,327.1A5.532,5.532,0,0,0,171.7,323C171.128,320.947,163.751,321.163,163.751,321.163Z" transform="translate(-133.673 -174.45)" fill="#ffbe55" opacity="0.9"/>
        <path id="Path_1019" data-name="Path 1019" d="M139.274,231.373s-8.421,9.745,1.42,27.722c0,0,.662,9.082.756,12.488s1.986,16.18.664,22.33-5.394,15.327-4.162,24.219,7.191,35.237,5.771,41.768l7.286-.609s3.879-54.119,4.728-56.011,4.164-5.959,3.974-14.382,11.636-40.684,11.827-50.238S139.274,231.373,139.274,231.373Z" transform="translate(-135.282 -230.229)" fill="#eea886"/>
        <path id="Path_1020" data-name="Path 1020" d="M171.8,240.952s-9.373,53.929-7.293,61.687c0,0-15.83-1.45-28.325-6.305,0,0,6.237-21.11,4.13-32.3s-6.861-17.313-3.727-28.618S171.8,240.952,171.8,240.952Z" transform="translate(-135.546 -229.965)" fill="#0e538c"/>
      </g>
      <path id="Path_1021" data-name="Path 1021" d="M287.636,166.13s8.728-5.452,13.191,1.623c3.285,5.21,4.278,25.432,4.278,25.432l.991,19.561s-1.384,3.213-9.23,3S287.636,166.13,287.636,166.13Z" transform="translate(165.353 51.212)" fill="#0e538c"/>
      <path id="Path_1022" data-name="Path 1022" d="M298.3,305.247s-4.961,7.368-6.96,9.145c0,0-7.675,4.71-7.962,7.839-.186,2.043,3.07,2.23,8.326,2.38s8.633-1.686,9.592-4.872a9.6,9.6,0,0,1,2.783-4.606V321.8h1.181s.3-6.442.372-7.626.85-5.739-1.65-7.756A6.92,6.92,0,0,0,298.3,305.247Z" transform="translate(162.339 150.776)" fill="#ffbe55" opacity="0.9"/>
      <path id="Path_1023" data-name="Path 1023" d="M287.539,314.7a8.212,8.212,0,0,0,8.245-.713,16.024,16.024,0,0,0,5.249-7.643l-5.681-1.167Z" transform="translate(165.285 150.85)" fill="#dba585"/>
      <g id="Group_60" data-name="Group 60" transform="translate(410.284 448.46)">
        <path id="Path_1024" data-name="Path 1024" d="M279.313,302.419a21.514,21.514,0,0,1-2.483,4.15c-1.189,1.546-4.882,7.919-6.515,8.361s-7.105,4.15-7.551,6.962-.222,2,4.739,2.22,8.216.517,10.587-2.959a25.8,25.8,0,0,1,6.146-6v9.075h1.925s.889-9.448,1.408-10.116,1.848-7.923-2.74-11.7S279.313,302.419,279.313,302.419Z" transform="translate(-262.609 -300.74)" fill="#ffbe55" opacity="0.9"/>
        <path id="Path_1025" data-name="Path 1025" d="M267.125,314.649s4.444,1.113,6.148,0,7.491-10.9,9.411-11.482c0,0-1.86-3.769-6.559-1.031C276.123,302.138,268.384,313.02,267.125,314.649Z" transform="translate(-259.42 -300.459)" fill="#dba585"/>
      </g>
      <g id="Group_63" data-name="Group 63" transform="translate(406.28 342.324)">
        <g id="Group_62" data-name="Group 62">
          <g id="Group_61" data-name="Group 61">
            <path id="Path_1026" data-name="Path 1026" d="M267.223,238.542a7.422,7.422,0,0,0-1.543,2.123,12.338,12.338,0,0,1-1.862,2.5,28.741,28.741,0,0,0-2.616,4.28c-.106.326.036,2.584-.256,3.22s-1.048,1.87-.476,2.1,1.553-.689,1.553-.689a.881.881,0,0,0,.206.954,1.517,1.517,0,0,0,1.488.413s.171.759.6.957a1.928,1.928,0,0,0,1.549.157,1.767,1.767,0,0,0,1.031.633,1.619,1.619,0,0,0,1.479-.483s1.056.493,1.531.046a5.456,5.456,0,0,0,.848-1.459,18.75,18.75,0,0,0,.811-8.186,7.41,7.41,0,0,1,2.106-6.007Z" transform="translate(-260.263 -238.542)" fill="#dba585"/>
          </g>
        </g>
      </g>
      <g id="Group_64" data-name="Group 64" transform="translate(401.034 353.914)">
        <path id="Path_1027" data-name="Path 1027" d="M257.189,257.41v-9.346a2.732,2.732,0,0,1,2.73-2.73h14.824a2.733,2.733,0,0,1,2.73,2.73v9.346a2.733,2.733,0,0,1-2.73,2.73H259.919A2.732,2.732,0,0,1,257.189,257.41Zm2.73-10.245a.9.9,0,0,0-.9.9v9.346a.9.9,0,0,0,.9.9h14.824a.9.9,0,0,0,.9-.9v-9.346a.9.9,0,0,0-.9-.9Z" transform="translate(-257.189 -245.334)" fill="#0b4870"/>
      </g>
      <g id="Group_65" data-name="Group 65" transform="translate(383.369 364.707)">
        <rect id="Rectangle_23" data-name="Rectangle 23" width="55.614" height="39.848" fill="#0e538c"/>
      </g>
      <g id="Group_66" data-name="Group 66" transform="translate(411.173 258.087)">
        <path id="Path_1028" data-name="Path 1028" d="M286.755,189.177s2.85.043,4.065,8.559-1.089,12.078-1.362,15.621-4.433,26.439-4.544,27.453-.672,13.194-2.293,16.428-13.54,21.557-13.7,22.47-5.79-3.189-5.79-3.189,9.367-19.6,9.909-21.837,4.312-13.658,3.717-17.144,1.671-22.714,1.45-24.852S281.3,190.479,286.755,189.177Z" transform="translate(-263.131 -189.177)" fill="#dba585"/>
      </g>
      <g id="Group_67" data-name="Group 67" transform="translate(410.496 258.087)">
        <path id="Path_1029" data-name="Path 1029" d="M287.035,189.177s2.85.043,4.065,8.559.116,11.585-.618,15.278c-.693,3.486-3.056,24.816-3.169,25.827s-2.942,13.871-4.411,18.4c-1.118,3.44-11.747,21.446-11.907,22.362s-8.261-4.21-8.261-4.21,10.392-20.274,10.931-22.509,2.305-9.976,2.362-13.515c.067-4.153,2.679-24.543,2.459-26.683S279.085,192.09,287.035,189.177Z" transform="translate(-262.734 -189.177)" fill="#0e538c"/>
      </g>
      <path id="Path_1030" data-name="Path 1030" d="M300.9,223.354s6.263,8.145,7.962,17.808-1.005,42.087-.928,46.867,4.515,16.658,3.624,25.652-3.652,53.032-3.652,53.032l-10.341-1.167s.555-45.643,0-49.423-1.671-17.54-1.892-19.093-14.1-42.384-14.1-49.349S285.791,211.988,300.9,223.354Z" transform="translate(161.067 91.194)" fill="#0b4870"/>
      <path id="Path_1031" data-name="Path 1031" d="M280.458,224.977s-10.291,39.275-11.511,44.717-2.995,9.931-2.995,12.242c0,5.36,1.993,13.969,1.993,13.969l7,62.194h8.841s.155-36.318.712-43.643-4-18.661-2.887-21.77S299.49,253.7,299.49,253.7,312.186,213.571,280.458,224.977Z" transform="translate(150.035 92.757)" fill="#0b4870"/>
      <g id="Group_68" data-name="Group 68" transform="translate(424.632 254.729)">
        <path id="Path_1032" data-name="Path 1032" d="M289.541,187.5a57.846,57.846,0,0,1-7.4,2.979c-1.909.381-9.315,10-10.612,13.508s0,8.781,2.671,14.965.152,8.245,1.375,14.428,2.29,19.274,2.06,22.711,30.878,4.083,37.976-2.176c0,0-7.136-10.686-8.053-12.214s-.154-9.846.688-11.984,6.43-20.313,6.43-20.313,4.571-13.958.442-17.168c-3.589-2.787-13.366-3.78-15.122-4.389S293.131,186.963,289.541,187.5Z" transform="translate(-271.018 -187.21)" fill="#f7f7f7"/>
      </g>
      <g id="Group_69" data-name="Group 69" transform="translate(438.06 253.065)">
        <path id="Path_1033" data-name="Path 1033" d="M282.23,200.438l-3.343-3.909,2.9-10.295A68.075,68.075,0,0,1,282.23,200.438Z" transform="translate(-278.887 -186.234)" fill="#cfc3bc"/>
      </g>
      <g id="Group_70" data-name="Group 70" transform="translate(440.532 241.153)">
        <path id="Path_1034" data-name="Path 1034" d="M280.336,186.778s1.1,10.081.87,13.361c0,0,5.708,5.725,12.2-6.679a17.012,17.012,0,0,1-.676-12.078C294.794,174.417,280.336,186.778,280.336,186.778Z" transform="translate(-280.336 -179.254)" fill="#dba585"/>
      </g>
      <g id="Group_71" data-name="Group 71" transform="translate(441.403 262.039)">
        <path id="Path_1035" data-name="Path 1035" d="M280.846,191.493v5.23l6.57-4.909Z" transform="translate(-280.846 -191.493)" fill="#dba585"/>
      </g>
      <g id="Group_72" data-name="Group 72" transform="translate(441.403 254.73)">
        <path id="Path_1036" data-name="Path 1036" d="M280.846,199.749l2.725-3.377,9.192-9.162,2.976,2.863Z" transform="translate(-280.846 -187.21)" fill="#cfc3bc"/>
      </g>
      <g id="Group_73" data-name="Group 73" transform="translate(446.486 255.607)">
        <path id="Path_1037" data-name="Path 1037" d="M291.937,187.724s-7.715,11.708-8.083,16.861,2.867,43.7,5.457,56.085,21.313-1.4,21.313-1.4-12.581-20.364-7.75-36.667,6.583-22.82,6.583-22.82-1.662-9.082-7.551-10.358C296.744,188.306,291.937,187.724,291.937,187.724Z" transform="translate(-283.825 -187.724)" fill="#0e538c"/>
      </g>
      <g id="Group_74" data-name="Group 74" transform="translate(424.472 256.824)">
        <path id="Path_1038" data-name="Path 1038" d="M271.084,204.68s-1.389,4.926,4.031,15.812c0,0-.087,13.924-.241,18.274s-1.181,20.8-1.181,20.8l5.36,3.143a1.516,1.516,0,0,0,2.268-1.49c-1.52-12.522-6.457-60.018,4.21-72.785l-4.281,1.263S273.644,195.925,271.084,204.68Z" transform="translate(-270.925 -188.437)" fill="#0e538c"/>
      </g>
      <g id="Group_75" data-name="Group 75" transform="translate(448.863 231.919)">
        <path id="Path_1039" data-name="Path 1039" d="M286.47,175.047a2.01,2.01,0,0,1,2.974-.853c.916.686,1.454,2.746,0,5.42S282.883,184.149,286.47,175.047Z" transform="translate(-285.218 -173.842)" fill="#dba585"/>
      </g>
      <g id="Group_76" data-name="Group 76" transform="translate(433.853 253.063)">
        <path id="Path_1040" data-name="Path 1040" d="M280.628,196.53l-4.206,1.162,7.109-11.459Z" transform="translate(-276.422 -186.233)" fill="#d3d3d3"/>
      </g>
      <g id="Group_77" data-name="Group 77" transform="translate(444.128 254.73)">
        <path id="Path_1041" data-name="Path 1041" d="M282.443,196.372l3.845,5.039,7.894-13.158-2.546-1.043Z" transform="translate(-282.443 -187.21)" fill="#d3d3d3"/>
      </g>
      <g id="Group_78" data-name="Group 78" transform="translate(440.759 246.519)">
        <path id="Path_1042" data-name="Path 1042" d="M280.469,186.773l.189,2.024s4.537.85,10.477-6.4C291.136,182.4,286.926,187.536,280.469,186.773Z" transform="translate(-280.469 -182.398)" fill="#997761"/>
      </g>
      <g id="Group_80" data-name="Group 80" transform="translate(407.904 350.474)">
        <g id="Group_79" data-name="Group 79">
          <path id="Path_1043" data-name="Path 1043" d="M261.311,248.256s.993-3.87,2.239-4.445.962.836.962.836.253-1.4,1.411-1.326.741,1.72.741,1.72a1.151,1.151,0,0,1,1.582-.517c1.1.49.437,1.776.437,1.776s1.486-1.06,1.843.384c.6,2.437-1.225,4.732-1.225,4.732a1.369,1.369,0,0,1-1.592-.031,1.627,1.627,0,0,1-2.536-.143s-1.976.524-2.169-1.119C263,250.123,260.727,250.483,261.311,248.256Z" transform="translate(-261.215 -243.318)" fill="#ebb18f"/>
        </g>
      </g>
      <path id="Path_1044" data-name="Path 1044" d="M285.309,222.235l8.735-14.092s-7.447,8.795-8.223,9.738-.841,1.014-.841,1.014S285.2,221.758,285.309,222.235Z" transform="translate(163.477 82.307)" fill="#2f386c"/>
      <g id="Group_81" data-name="Group 81" transform="translate(378.299 299.423)">
        <path id="Path_1045" data-name="Path 1045" d="M257.476,214.956a3.433,3.433,0,0,0-1.981-1.126c-.923-.034-1.647.724-2.425,1.224-1.092.7-2.421.923-3.563,1.532a5.446,5.446,0,0,0-2.737,3.49,4.705,4.705,0,0,0,1.1,4.246,13.005,13.005,0,0,1,1.624,1.619c.375.57.515,1.266.858,1.86a1.506,1.506,0,0,0,1.677.853,2.422,2.422,0,0,0,.9-.823,6.847,6.847,0,0,1,4.385-2.066c1.638-.217,3.3-.113,4.947-.249a2.6,2.6,0,0,0,2.21-1.056c.427-.833-.084-1.822-.585-2.619-1.285-2.053.4-2.857-.886-4.906-.44,0-3.78-1.084-4.223-1.2A3.423,3.423,0,0,1,257.476,214.956Z" transform="translate(-241.901 -213.099)" fill="#f2b793"/>
        <path id="Path_1046" data-name="Path 1046" d="M248.762,220.261a8.88,8.88,0,0,1,1.7-2.427,6.13,6.13,0,0,1,2-1.293,2.777,2.777,0,0,1,1.421-.381,2.469,2.469,0,0,1,1.425.44,4.092,4.092,0,0,0,1.816.7c.592.039,1.524-.247,1.558-.84.02-.37-.684-.723-.927-1a5.5,5.5,0,0,0-3.909-2.06,10.1,10.1,0,0,0-2.3.613c-.546.16-1.169.28-1.713.444a12.572,12.572,0,0,0-4.109,1.92c-.792.606-2.737,2.933-1.416,3.836C245.588,221.083,248.178,221.573,248.762,220.261Z" transform="translate(-243.866 -213.401)" fill="#f4a086"/>
        <path id="Path_1047" data-name="Path 1047" d="M255.82,221.171c-1.3,1.986-2.727,2.653-5.036,3.217a.964.964,0,0,1-.889-.094,1.819,1.819,0,0,1-.263-.392.584.584,0,0,1-.1-.314.541.541,0,0,1,.172-.336c.13-.106.321-.1.416-.249a1.348,1.348,0,0,0,.147-.384,1.2,1.2,0,0,1,.532-.724c.353-.189.751.036,1.043-.4a1.212,1.212,0,0,1,.454-.473c.565-.224.822.123,1.162-.116.155-.109.249-.4.44-.5a1.311,1.311,0,0,1,.546-.154C254.984,220.2,256,220.461,255.82,221.171Z" transform="translate(-239.859 -208.565)" fill="#f4a086"/>
      </g>
      <path id="Path_1048" data-name="Path 1048" d="M309.951,207.522c1.978-4.4,1-10.9,6.884-14.231,4.45-2.524,5.37-5.853,8.856-2.573s4.182,11.011,3.328,15.351c-.98,4.955-5.606,20.861-8.367,24.6-2.8,3.8-4.269,5.993-9.075,7.9-3.877,1.536-9.653,1.676-14.226,2.136q-3.683.374-7.387.66c-2.235.174-18.82,1.017-21.274,1.329-.469.06-7.892-.15-8.334-.3-.647-.213-2.152-.15-2.52-.643a6.087,6.087,0,0,1-1.184-2.5l-.6-6.8c.256-.067,12-.717,12.4-.723a160.455,160.455,0,0,0,16.532-1.346c1.3-.167,12.793-1.49,13.95-1.92.952-.353,3.58-1.133,3.875-2.169a13.536,13.536,0,0,0,3.027-4.875C307.108,217.87,308.391,210.994,309.951,207.522Z" transform="translate(143.038 69.031)" fill="#0e538c"/>
      <path id="Path_1049" data-name="Path 1049" d="M198.617,310.938a38.59,38.59,0,0,1-3.338,5.259c-1.316,1.5-9.971,9.252-10,13.694-.029,4.812,9.667.906,15.46-1.787,3.032-1.409,3.592-2.749,5-5.472s2.824-2.266,3.089-4.462-1.362-7.232-1.362-7.232Z" transform="translate(93.048 154.923)" fill="#0b4870"/>
      <g id="Group_82" data-name="Group 82" transform="translate(332.278 464.612)">
        <path id="Path_1050" data-name="Path 1050" d="M227.139,311.02s4.116,4.6,8.293,5.56,10.868,5.232,10.9,7.868-15.795,1.333-20.578-1.326c-7.136-3.969-7.861-2.769-8.655-4.756s.952-7.288.9-7.916C217.942,309.667,227.139,311.02,227.139,311.02Z" transform="translate(-216.896 -310.206)" fill="#0b4870"/>
      </g>
      <g id="Group_83" data-name="Group 83" transform="translate(333.379 461.929)">
        <path id="Path_1051" data-name="Path 1051" d="M226.22,309.931a18.8,18.8,0,0,1,.464,2.2c-.082.043-9.419,1.157-9.136-.57.23-1.4.555-2.926.555-2.926Z" transform="translate(-217.541 -308.634)" fill="#807f7d"/>
      </g>
      <g id="Group_84" data-name="Group 84" transform="translate(291.296 463.602)">
        <path id="Path_1052" data-name="Path 1052" d="M201.98,310.421a18.983,18.983,0,0,1,.317,2.1c-.077.049-9.469,1.727-9.418.024a8.179,8.179,0,0,1,.867-2.933Z" transform="translate(-192.88 -309.614)" fill="#807f7d"/>
      </g>
      <g id="Group_85" data-name="Group 85" transform="translate(287.996 324.42)">
        <path id="Path_1053" data-name="Path 1053" d="M236.517,237.957s3.4,32.975,5.164,44.266c2.061,13.2,2.763,24.107,3.338,30.936.724,8.592.863,50.863,1.374,53.375s-11.25.7-11.25.7S229.361,312,227.2,302.847c-2.007-8.522-9.464-45.206-11.295-42.88s-4.1,42.814-5.464,49.532-5.484,59.334-5.484,59.334-9.355,1.863-11.844-.244c0,0-1.131-45.339-.268-57.941.331-4.8-5.626-57.574,2.012-78.817C198.895,220.6,236.517,237.957,236.517,237.957Z" transform="translate(-190.946 -228.05)" fill="#0e538c"/>
      </g>
      <g id="Group_86" data-name="Group 86" transform="translate(264.622 251.874)">
        <path id="Path_1054" data-name="Path 1054" d="M215.714,260.681s2.266-3.426,4.662-3.867-33.05-17.578-32.954-23.7c.072-4.966,12.412-14.124,12.412-14.124h0a.682.682,0,0,0,0-.084h0c.27.983,4.3,15.651,4.426,22.187.137,6.783-.4,30.122-.4,30.122l9.087,2.433,29.023.27,6.626-2.7s-.725-7.5-.993-12.774c-.169-3.35-.817-9.349-.65-15.19,0,0-.108-6.158.5-8.812.065-11.7.775-23.3.775-23.3q.589-7.963.822-14.9c-1.281-.676-2.817-1.469-4.054-2.053-3.809-1.816-9.122-4.263-12.532-5.829-2-.913-3.949-1.584-3.949-1.584s-13.622-1.307-14.73-1.237A34.829,34.829,0,0,0,209.5,187c-4.831,1.833-14.141,5.566-15.627,6.633-2.176,1.553-16.414,39.227-16.62,41.817C176.877,240.12,215.714,260.681,215.714,260.681Z" transform="translate(-177.248 -185.536)" fill="#f7f7f7"/>
      </g>
      <path id="Path_1055" data-name="Path 1055" d="M234.025,234.3s-19.938,1.7-37.4,0v5.728s26,2.483,38.271-1.094Z" transform="translate(101.065 100.782)" fill="#0e538c"/>
      <g id="Group_87" data-name="Group 87" transform="translate(318.085 253.947)">
        <path id="Path_1056" data-name="Path 1056" d="M208.579,186.751s3.242,7.619,5.676,24.646c.935,6.539,2.669,17.55,3.928,28.789h0c.993,8.858,3.258,17.951,3.979,24.729.747,7.025,2.993,27.722,2.993,27.722l5.452-3.44c.782-.72,1.872-1.654,1.555-2.665-1.5-4.843-4.372-20.847-6.065-34.8,0-.01-.005-.02-.005-.031q-.12-1.011-.236-2c-.005-.034-.007-.07-.012-.106-.321-2.79-.585-5.462-.775-7.913a24.89,24.89,0,0,1,.244-5.5c.758-12.525,1.136-25.722,1.136-25.722.4-5.409.63-10.459.783-15.161C227.235,195.3,210.128,187.213,208.579,186.751Z" transform="translate(-208.579 -186.751)" fill="#0b4870"/>
      </g>
      <g id="Group_88" data-name="Group 88" transform="translate(262.081 252.582)">
        <path id="Path_1057" data-name="Path 1057" d="M192.545,231.092c-2.368,5.182,21.7,14.428,21.154,15.7-1.3,3.066-6.614,9.319-6.614,9.319s-31.68-15.675-31.323-19.224c.256-2.587,15.1-41.694,17.272-43.254,1.256-.9,10.559-4.2,15.126-6,.836-.329,3.684-1.4,4.432-1.682.969,1.08,7.645,8.445,10,36.282.4,4.693-.858,14.624-1.7,22.733-.892,8.651-1.884,15.4-2.609,22.641-1.428,14.252-2.428,25.6-2.428,25.6l-14.187-6.319c-2.293-1.147-6.266-4.147-5.4-6.563,3.28-9.186,8.2-26.593,8.2-34.652,0,0-2.317-22.243-3.573-26.579C200.9,219.091,195.188,225.294,192.545,231.092Z" transform="translate(-175.759 -185.951)" fill="#0b4870"/>
      </g>
      <g id="Group_89" data-name="Group 89" transform="translate(300.512 238.748)">
        <path id="Path_1058" data-name="Path 1058" d="M200.184,192.424a95.835,95.835,0,0,0-1.892-14.138c-.483-2.536,14.7,6.662,14.7,6.662s-.048.889-.079,2.087c-.017.633-.027,1.353-.022,2.07,0,.256.005.507.01.756.014.671.044,1.311.1,1.857a8.864,8.864,0,0,0,.505,1.822C214.139,194.987,205.3,196.082,200.184,192.424Z" transform="translate(-198.28 -177.844)" fill="#dba686"/>
      </g>
      <path id="Path_1059" data-name="Path 1059" d="M205.6,189.259l2.517,3.382a3.054,3.054,0,0,1-4.094.517Z" transform="translate(106.291 68.967)" fill="#ffbe55" opacity="0.9"/>
      <path id="Path_1060" data-name="Path 1060" d="M207.5,191.358s9.547,36.758,7.578,65.371l-3.211,5.658-3.007-5.93s-2.28-51.179-4.9-65.19Z" transform="translate(106.243 70.387)" fill="#ffbe55" opacity="0.9"/>
      <path id="Path_1061" data-name="Path 1061" d="M210.011,187.809l-2.694,3.153s-4.326-.84-5.6-3.1S210.011,187.809,210.011,187.809Z" transform="translate(104.58 67.264)" fill="#dba686"/>
      <path id="Path_1062" data-name="Path 1062" d="M208.265,185.794s-.314,2.4-3.312,5.913l3.275,4.4L210,186.98Z" transform="translate(106.945 66.52)" fill="#d3d3d3"/>
      <path id="Path_1063" data-name="Path 1063" d="M199.873,184.226s5.392,6.86,9.769,8.588l-2.034,5.029-9.293-11.235Z" transform="translate(102.256 65.412)" fill="#d3d3d3"/>
      <g id="Group_90" data-name="Group 90" transform="translate(327.096 261.406)">
        <path id="Path_1064" data-name="Path 1064" d="M268.563,238.528s-24.535-3.437-29.98-4.776c-2.519-.616-5.831-4.092-8.984-8.179-1.038-1.346-2.058-2.756-3.025-4.157,0,0,0-.007,0-.007-3.865-5.58-6.894-10.928-6.894-10.928s-11.424-13.389-2.256-19.358c0,0,3.93-.087,6.083,1.087,2.217,1.2,6.943,11.068,7.744,12.815s9.486,17.97,10.064,18.337,9.247,2.246,13.11,3.053c5.6,1.167,16.105,3.35,16.105,3.35Z" transform="translate(-213.859 -191.122)" fill="#0b4870"/>
      </g>
      <path id="Path_1065" data-name="Path 1065" d="M205.4,235.619a5.269,5.269,0,0,1-1.657-.314s-.867-.556-1.507-.913a5.654,5.654,0,0,0-.507-.256,9.6,9.6,0,0,1-2.79-1.329c-1.09-.829-4.65-4.16-4.65-4.16l2.3-3.536,1.06-3.5s8.3.822,9.407,1.483c.106.067.212.133.3.2a12.192,12.192,0,0,1,1.693,1.892c.157.147,1.6,1.693,1.522,2.319a2.069,2.069,0,0,1-1.084,1.7,4.947,4.947,0,0,1-1.169,2.454,3.085,3.085,0,0,1-1.58,2.206S206.344,235.433,205.4,235.619Z" transform="translate(99.412 91.819)" fill="#dca787"/>
      <path id="Path_1066" data-name="Path 1066" d="M199.21,234.137a29.038,29.038,0,0,0,7.116-9.319l-14.161-7.756-5.256,10.7Z" transform="translate(94.198 88.609)" fill="#0b4870"/>
      <g id="Group_91" data-name="Group 91" transform="translate(299.129 215.012)">
        <path id="Path_1067" data-name="Path 1067" d="M221.565,171.49s3.334,6.189,1.679,7.148c-1.365.793,1.6,6.865,1.99,7.856s-2.474,1.713-3.084,2.353-2.409,8.493-4.769,8.725-12.982-3.456-15.876-6.466-5.264-16.595-3.334-22.323S215.674,160.685,221.565,171.49Z" transform="translate(-197.47 -163.935)" fill="#dba585"/>
      </g>
      <g id="Group_92" data-name="Group 92" transform="translate(296.306 212.847)">
        <path id="Path_1068" data-name="Path 1068" d="M223.4,173.729a42.659,42.659,0,0,0,.937-10.133c0-3.017-21.306,2.237-22.593,2.57s-8.578.833-4.9,13.641c3.164,10.994,3.606,11.455,3.606,11.455s2.36-6.365,3.7-7.339c2.09-1.517,6.667-1.154,6.667-1.154s-2.183-5.793,1.23-6.612S219.947,172.446,223.4,173.729Z" transform="translate(-195.816 -162.666)" fill="#0b4870"/>
      </g>
      <g id="Group_93" data-name="Group 93" transform="translate(303.182 228.535)">
        <path id="Path_1069" data-name="Path 1069" d="M205,174.688c-.3-.8-1.276-4.213-4.2-2.206s1.824,8.445,2.334,8.529S207.53,181.374,205,174.688Z" transform="translate(-199.845 -171.859)" fill="#dba585"/>
      </g>
      <path id="Path_1070" data-name="Path 1070" d="M211.134,187.152c0,.256.005.507.01.756-8.687-2.916-10.37-7.3-10.37-7.3,2.71,1.916,10.382,4.476,10.382,4.476C211.139,185.717,211.129,186.435,211.134,187.152Z" transform="translate(103.993 62.855)" fill="#997761"/>
      <g id="Group_94" data-name="Group 94" transform="translate(203.671 253.657)">
        <path id="Path_1071" data-name="Path 1071" d="M151.146,186.581s5.662,3.386,7.029,8.7-.142,11.991-.3,14.337,1.251,25.632,1.667,26.366,6.078,11.882,8.489,19.38,8.483,18.088,8.483,18.088l-9.046,3.9s-17.725-27.932-18.868-35.708c-1.224-8.3-6.36-32.929-6.36-32.929S137.8,187.627,151.146,186.581Z" transform="translate(-141.529 -186.581)" fill="#d3d3d3"/>
      </g>
      <path id="Path_1072" data-name="Path 1072" d="M157.926,163.6c4.377-.09,14.011,2.382,15.18,14.011a36.232,36.232,0,0,1-1.264,5.546c-.826,2.433,1.169,9.732.585,10.071a16.029,16.029,0,0,1-2.969.73s-2.773,7.832-5.546,7.686-13.218-2.609-17.887-12.585S140.251,163.957,157.926,163.6Z" transform="translate(63.233 50.84)" fill="#eea886"/>
      <path id="Path_1073" data-name="Path 1073" d="M288.719,164.719c-4.082-.087-13.068,2.223-14.156,13.068a33.648,33.648,0,0,0,1.179,5.172c.771,2.266-1.089,9.071-.544,9.392a14.824,14.824,0,0,0,2.769.679s2.587,7.305,5.172,7.169,12.327-2.437,16.682-11.738S305.207,165.052,288.719,164.719Z" transform="translate(156.118 51.63)" fill="#dea787"/>
      <path id="Path_1074" data-name="Path 1074" d="M173.556,178.4s-7.233,4.64-14.3,5.416-11.774,7.923-11.774,7.923-10.344-13.76-1.392-24.4S175.469,164.939,173.556,178.4Z" transform="translate(62.783 50.05)" fill="#0e538c"/>
      <path id="Path_1075" data-name="Path 1075" d="M153.049,173.053c-3.027,4.259-8.087,5.86-11.3,3.573s-3.36-7.588-.333-11.844,8.09-5.86,11.3-3.577S156.078,168.8,153.049,173.053Z" transform="translate(60.526 48.416)" fill="#0e538c"/>
      <path id="Path_1076" data-name="Path 1076" d="M146.137,189.541a34.652,34.652,0,0,0,0-8.808s13.168,6.085,10.887,7.735a4.132,4.132,0,0,0-1.285,2.246,25.7,25.7,0,0,0-.578,6.923l4.368,5.2C163.384,208.13,145.808,191.293,146.137,189.541Z" transform="translate(65.393 62.944)" fill="#eea886"/>
      <path id="Path_1077" data-name="Path 1077" d="M152.488,175.721c0-1.367-1.461-3.452-3.747-1.657s.532,8.368,2.382,7.785S152.488,177.131,152.488,175.721Z" transform="translate(66.631 57.742)" fill="#eea886"/>
      <path id="Path_1078" data-name="Path 1078" d="M156.233,187.562a4.132,4.132,0,0,0-1.285,2.246,22.657,22.657,0,0,1-7.7-7.795C150.039,185.448,156.233,187.562,156.233,187.562Z" transform="translate(66.184 63.849)" fill="#a77860"/>
      <g id="Group_98" data-name="Group 98" transform="translate(378.511 176.109)">
        <path id="Path_1079" data-name="Path 1079" d="M288.719,176.527H253.642a9.679,9.679,0,0,1-9.651-9.652V150.791a9.682,9.682,0,0,1,9.651-9.655h35.077a9.685,9.685,0,0,1,9.653,9.655v16.085A9.682,9.682,0,0,1,288.719,176.527Z" transform="translate(-243.99 -141.136)" fill="#ffbe55" opacity="0.9"/>
        <g id="Group_95" data-name="Group 95" transform="translate(9.03 10.44)">
          <path id="Path_1080" data-name="Path 1080" d="M250.046,148.019h0Z" transform="translate(-248.742 -146.714)" fill="#fff"/>
          <path id="Path_1081" data-name="Path 1081" d="M284.369,149.865H250.586a1.305,1.305,0,0,1,0-2.611h33.784a1.305,1.305,0,1,1,0,2.611Z" transform="translate(-249.282 -147.254)" fill="#fff"/>
        </g>
        <g id="Group_96" data-name="Group 96" transform="translate(9.03 16.835)">
          <path id="Path_1082" data-name="Path 1082" d="M250.046,151.767h0Z" transform="translate(-248.742 -150.462)" fill="#fff"/>
          <path id="Path_1083" data-name="Path 1083" d="M284.369,153.613H250.586a1.305,1.305,0,0,1,0-2.611h33.784a1.305,1.305,0,1,1,0,2.611Z" transform="translate(-249.282 -151.002)" fill="#fff"/>
        </g>
        <g id="Group_97" data-name="Group 97" transform="translate(9.03 23.234)">
          <path id="Path_1084" data-name="Path 1084" d="M250.046,155.517h0Z" transform="translate(-248.742 -154.212)" fill="#fff"/>
          <path id="Path_1085" data-name="Path 1085" d="M284.369,157.359H250.586a1.3,1.3,0,0,1,0-2.607h33.784a1.3,1.3,0,1,1,0,2.607Z" transform="translate(-249.282 -154.752)" fill="#fff"/>
        </g>
        <path id="Path_1086" data-name="Path 1086" d="M266.877,177.794l-15.018-16.475h12.887Z" transform="translate(-238.431 -126.879)" fill="#ffbe55" opacity="0.9"/>
      </g>
      <g id="Group_102" data-name="Group 102" transform="translate(306.188 152.536)">
        <path id="Path_1087" data-name="Path 1087" d="M211.26,162.713h35.077a9.682,9.682,0,0,0,9.653-9.655V136.973a9.683,9.683,0,0,0-9.653-9.651H211.26a9.684,9.684,0,0,0-9.653,9.651v16.085A9.68,9.68,0,0,0,211.26,162.713Z" transform="translate(-201.607 -127.322)" fill="#ffbe55" opacity="0.9"/>
        <g id="Group_99" data-name="Group 99" transform="translate(8.959 10.436)">
          <path id="Path_1088" data-name="Path 1088" d="M241.4,134.2h0Z" transform="translate(-206.317 -132.897)" fill="#fff"/>
          <path id="Path_1089" data-name="Path 1089" d="M208.161,136.052h33.784a1.307,1.307,0,0,0,0-2.614H208.161a1.307,1.307,0,0,0,0,2.614Z" transform="translate(-206.857 -133.438)" fill="#fff"/>
        </g>
        <g id="Group_100" data-name="Group 100" transform="translate(8.959 16.835)">
          <path id="Path_1090" data-name="Path 1090" d="M241.4,137.952h0Z" transform="translate(-206.317 -136.648)" fill="#fff"/>
          <path id="Path_1091" data-name="Path 1091" d="M208.161,139.8h33.784a1.305,1.305,0,0,0,0-2.611H208.161a1.305,1.305,0,0,0,0,2.611Z" transform="translate(-206.857 -137.188)" fill="#fff"/>
        </g>
        <g id="Group_101" data-name="Group 101" transform="translate(8.959 23.231)">
          <path id="Path_1092" data-name="Path 1092" d="M241.4,141.7h0Z" transform="translate(-206.317 -140.395)" fill="#fff"/>
          <path id="Path_1093" data-name="Path 1093" d="M208.161,143.547h33.784a1.305,1.305,0,0,0,0-2.611H208.161a1.305,1.305,0,0,0,0,2.611Z" transform="translate(-206.857 -140.936)" fill="#fff"/>
        </g>
        <path id="Path_1094" data-name="Path 1094" d="M216.806,163.98,231.821,147.5H218.937Z" transform="translate(-190.87 -113.066)" fill="#ffbe55" opacity="0.9"/>
      </g>
      <g id="Group_104" data-name="Group 104" transform="translate(240.263 297.457)">
        <g id="Group_103" data-name="Group 103">
          <path id="Path_1095" data-name="Path 1095" d="M162.973,218.624s.966-4.416.766-5.437,1.217-1.741,1.394.766.264,4.106.264,4.106Z" transform="translate(-162.973 -212.249)" fill="#eea886"/>
        </g>
      </g>
      <path id="Path_1096" data-name="Path 1096" d="M174.276,230.3h-9.211l-1.438-20.4h11.948Z" transform="translate(77.751 83.549)" fill="#ffbe55" opacity="0.9"/>
      <g id="Group_106" data-name="Group 106" transform="translate(232.5 299.007)">
        <g id="Group_105" data-name="Group 105">
          <path id="Path_1097" data-name="Path 1097" d="M165.818,219.023s-.075-1.563,2.967-2.867c4.041-1.727,9.411-3.433,10.295-2.9,1.27.766.56,1.73-1.981,2.454s-3.377.954-3.377.954,4.923-.266,6,.367,1.08,1.986.27,2.176a20.588,20.588,0,0,1-2.715.249s2.077.16,2.249,1.007c.128.619.169,1.51-1.814,1.8,0,0,1.276,1.532-.764,2.4a34.922,34.922,0,0,1-7.532,1.811c-3.807.466-10.989-.776-10.989-.776l2.4-5.363a6.374,6.374,0,0,0,3.42.063C166.033,219.7,165.818,219.023,165.818,219.023Z" transform="translate(-158.424 -213.158)" fill="#eea886"/>
        </g>
      </g>
      <path id="Path_1098" data-name="Path 1098" d="M155.6,185.9s7.785,7.4,10.7,10.7,12.455,15.278,13.33,18.876-2.6,8.8-4.962,11.288c-2.174,2.287-.391,7.588-.679,10.605s-1.379,33.285-2.45,36.3-28.262,6.07-37.7-4.15c0,0,10.177-21.936,13.1-25.344s-2.237-25.2-3.99-30.362S144.5,185.7,155.6,185.9Z" transform="translate(56.709 66.591)" fill="#f7f7f7"/>
      <path id="Path_1099" data-name="Path 1099" d="M153.109,188.519a7.216,7.216,0,0,0-8.7,6.032c-.971,5.9-1.362,12.455-2.268,15.631s-5.222,21.11-3.276,22.277,5.928,2.423,10.5,4.826c4.382,2.3,25.688,11.249,25.688,11.249l1.659-11.168a42.59,42.59,0,0,1-7.785-2.79c-3.7-1.816-11.288-6.682-18.1-10.9,0,0,2.918-11.742,3.826-14.2S161.931,191.372,153.109,188.519Z" transform="translate(59.91 68.313)" fill="#d3d3d3"/>
      <rect id="Rectangle_24" data-name="Rectangle 24" width="12.738" height="2.433" transform="translate(240.983 292.234)" fill="#0b4870"/>
      <g id="Group_107" data-name="Group 107" transform="translate(493.366 461.259)">
        <path id="Path_1100" data-name="Path 1100" d="M322.717,308.241s-2.792,1.99-4.338,3.386-3.648,2.913-4.937,6.472c-1.3,3.6-3.88,8.962-.394,9.179s13.47-5.2,13.989-8.389c.517-3.164,4.614-2.79,5.148-5.039a12.343,12.343,0,0,0-.179-5.019Z" transform="translate(-311.298 -308.241)" fill="#2a94f4"/>
      </g>
      <g id="Group_108" data-name="Group 108" transform="translate(504.787 458.643)">
        <path id="Path_1101" data-name="Path 1101" d="M318.453,306.708l-.462,2.616s1.437,2.66,9.288.59l-.4-2.577Z" transform="translate(-317.991 -306.708)" fill="#81807e"/>
      </g>
      <path id="Path_1102" data-name="Path 1102" d="M327.279,308.857s-1.77.234-3.029.433-3.756-1.416-6.259-1.024l.77,3.179S327.1,309.883,327.279,308.857Z" transform="translate(186.796 152.992)" fill="#0b4870"/>
      <g id="Group_109" data-name="Group 109" transform="translate(545.28 460.737)">
        <path id="Path_1103" data-name="Path 1103" d="M351.388,307.935s2.792,1.993,4.336,3.386,3.65,2.916,4.938,6.472c1.3,3.6,1.072,9.491-2.416,9.706s-10.658-5.72-11.179-8.913c-.517-3.164-4.612-2.793-5.148-5.039a12.344,12.344,0,0,1,.177-5.022Z" transform="translate(-341.721 -307.935)" fill="#2a94f4"/>
      </g>
      <g id="Group_110" data-name="Group 110" transform="translate(545.656 458.122)">
        <path id="Path_1104" data-name="Path 1104" d="M350.767,306.4l.464,2.613s-1.438,2.66-9.29.59l.4-2.577Z" transform="translate(-341.941 -306.403)" fill="#81807e"/>
      </g>
      <g id="Group_111" data-name="Group 111" transform="translate(503.166 315.185)">
        <path id="Path_1105" data-name="Path 1105" d="M372.116,306.068c0,5.752-.823,59.98-.823,59.98-.575,1.916-11.315,2.546-13.232,1.587s-1.58-54.735-1.935-60.532-5.012-48.44-6.691-48.245-11.179,40.36-12.52,44.766-6.621,63.7-6.621,63.7a24.057,24.057,0,0,1-13.254.276s2.5-60.054,2.507-67.187c0-2.65.782-4.65,1.532-18.721.572-10.725,3.556-32.705,5.553-47.826.072-.536.138-1.053.208-1.549.389-2.944.681-5.106.823-6.14.061-.451.1-.689.1-.689.534-.249,1.1-.476,1.686-.689,14.032-5.039,41.1.3,41.1.3l.044.384c.038.3.094.78.167,1.4.154,1.333.387,3.319.655,5.626,0,.017,0,.034.005.049.007.067.015.14.024.21.945,8.2,1.413,12.7,2.155,21.456C373.76,256.142,372.116,300.322,372.116,306.068Z" transform="translate(-317.041 -222.638)" fill="#d3d3d3"/>
      </g>
      <path id="Path_1106" data-name="Path 1106" d="M341.941,308.55s1.771.234,3.029.433,3.756-1.413,6.261-1.024l-.771,3.182S342.119,309.58,341.941,308.55Z" transform="translate(203.715 152.776)" fill="#0b4870"/>
      <g id="Group_112" data-name="Group 112" transform="translate(430.612 213.777)">
        <path id="Path_1107" data-name="Path 1107" d="M274.527,177.257s-.606-13.554,12.87-14.032,17.1,10.626,16,18.707a19.781,19.781,0,0,1-6.681,12.351s.481-6.542-2.133-8.242-13.093-5.085-17.661-12.965C276.919,173.078,274.8,175.564,274.527,177.257Z" transform="translate(-274.523 -163.211)" fill="#0e538c"/>
      </g>
      <g id="Group_113" data-name="Group 113" transform="translate(512.642 241.943)">
        <path id="Path_1108" data-name="Path 1108" d="M355.929,254.858s-2.264-3.426-4.662-3.867,33.052-17.578,32.954-23.7c-.072-4.969-12.412-14.124-12.412-14.124h0s0-.09,0-.087h0c-.268.983-4.3,15.651-4.425,22.187-.136,6.786.4,30.125.4,30.125l-9.085,2.433-29.023.266-6.626-2.7s.725-7.5.991-12.778c.169-3.35.817-9.349.652-15.19,0,0,.106-6.158-.5-8.809-.066-11.7-.776-23.3-.776-23.3q-.589-7.958-.823-14.9c1.283-.676,2.819-1.469,4.055-2.056,3.81-1.816,9.124-4.263,12.532-5.829,2-.913,3.949-1.584,3.949-1.584s13.622-1.3,14.73-1.234a35.167,35.167,0,0,1,4.285,1.462c4.831,1.833,14.143,5.566,15.629,6.633,2.174,1.556,16.414,39.23,16.62,41.821C394.767,234.3,355.929,254.858,355.929,254.858Z" transform="translate(-322.594 -179.716)" fill="#cce9ff"/>
      </g>
      <g id="Group_114" data-name="Group 114" transform="translate(507.338 243.307)">
        <path id="Path_1109" data-name="Path 1109" d="M324.472,189.058c.154,4.706.382,9.756.782,15.161,0,0,.379,13.2,1.138,25.726a25.179,25.179,0,0,1,.244,5.5c-.189,2.45-.456,5.123-.775,7.916-.005.034-.009.07-.012.1-.077.664-.157,1.326-.237,2,0,.01,0,.02,0,.031-1.694,13.952-4.566,29.96-6.066,34.8-.317,1.014.775,1.947,1.555,2.669l5.454,3.437s2.246-20.7,2.991-27.722c.722-6.78,2.988-15.868,3.981-24.726v0c1.256-11.238-.178-21.267.759-27.806,2.433-17.03,8.844-25.627,8.844-25.627C341.579,180.973,324.472,189.058,324.472,189.058Z" transform="translate(-319.486 -180.516)" fill="#0b4870"/>
      </g>
      <g id="Group_115" data-name="Group 115" transform="translate(540.072 241.941)">
        <path id="Path_1110" data-name="Path 1110" d="M368.8,224.856c2.367,5.182-21.7,14.424-21.154,15.7,1.3,3.07,6.612,9.319,6.612,9.319s31.68-15.672,31.325-19.224c-.258-2.587-15.1-41.694-17.274-43.254-1.256-.9-10.559-4.2-15.126-6-.836-.326-3.682-1.4-4.432-1.679-.969,1.077-7.643,8.445-10,36.282-.4,4.689.86,14.624,1.7,22.733.891,8.648,1.884,15.4,2.607,22.637,1.43,14.252,2.43,25.6,2.43,25.6l14.187-6.315c2.293-1.15,6.264-4.147,5.4-6.563-3.278-9.186-8.2-26.593-8.2-34.656,0,0,2.317-22.243,3.573-26.579C360.436,212.852,366.153,219.058,368.8,224.856Z" transform="translate(-338.669 -179.715)" fill="#0b4870"/>
      </g>
      <g id="Group_116" data-name="Group 116" transform="translate(533.289 228.102)">
        <path id="Path_1111" data-name="Path 1111" d="M348.052,186.184a95.732,95.732,0,0,1,1.894-14.138c.483-2.532-14.7,6.662-14.7,6.662s.048.889.08,2.09c.017.63.026,1.35.022,2.066,0,.256-.005.51-.01.756-.015.671-.044,1.314-.1,1.857a8.8,8.8,0,0,1-.505,1.826C334.1,188.747,342.938,189.845,348.052,186.184Z" transform="translate(-334.694 -171.605)" fill="#fcd2b1"/>
      </g>
      <path id="Path_1112" data-name="Path 1112" d="M340.962,183.021s-11.39,40.278-9.421,68.89l3.211,5.662,3.008-5.933s2.278-51.179,4.9-65.187Z" transform="translate(196.206 64.561)" fill="#ffbe55" opacity="0.9"/>
      <path id="Path_1113" data-name="Path 1113" d="M335.389,181.574l2.693,3.15s4.326-.836,5.6-3.1S335.389,181.574,335.389,181.574Z" transform="translate(199.086 62.857)" fill="#fcd2b1"/>
      <path id="Path_1114" data-name="Path 1114" d="M335.743,179.558s.314,2.4,3.312,5.909l-3.273,4.4-1.773-9.129Z" transform="translate(198.111 62.115)" fill="#0b4870"/>
      <path id="Path_1115" data-name="Path 1115" d="M346.737,177.989s-5.394,6.856-9.771,8.585L339,191.6l9.293-11.232Z" transform="translate(200.2 61.006)" fill="#0b4870"/>
      <path id="Path_1116" data-name="Path 1116" d="M350.747,227.9a29,29,0,0,1-7.114-9.319l14.161-7.752,5.256,10.7Z" transform="translate(204.91 84.203)" fill="#0b4870"/>
      <g id="Group_120" data-name="Group 120" transform="translate(521.867 199.507)">
        <g id="Group_117" data-name="Group 117" transform="translate(0.269 4.863)">
          <path id="Path_1117" data-name="Path 1117" d="M331.864,165.254s-3.334,6.186-1.681,7.146c1.365.8-1.6,6.868-1.99,7.858s2.474,1.713,3.084,2.35,2.411,8.493,4.771,8.728,12.981-3.459,15.875-6.466,5.266-16.595,3.334-22.327S337.753,154.449,331.864,165.254Z" transform="translate(-328.158 -157.697)" fill="#fcd2b1"/>
        </g>
        <g id="Group_118" data-name="Group 118">
          <path id="Path_1118" data-name="Path 1118" d="M331.311,168.607s-6.78-6.86-.935-10.129c16.678-9.332,21.306,2.237,22.593,2.566s8.576.833,4.9,13.641c-3.164,11-3.607,11.459-3.607,11.459s-2.36-6.368-3.7-7.343c-2.09-1.517-6.669-1.15-6.669-1.15s2.182-5.793-1.229-6.616S334.763,167.327,331.311,168.607Z" transform="translate(-328 -154.848)" fill="#0b4870"/>
        </g>
        <g id="Group_119" data-name="Group 119" transform="translate(18.015 18.385)">
          <path id="Path_1119" data-name="Path 1119" d="M339.405,168.448c.3-.8,1.276-4.21,4.2-2.2s-1.822,8.442-2.334,8.525S336.875,175.137,339.405,168.448Z" transform="translate(-338.557 -165.622)" fill="#fcd2b1"/>
        </g>
      </g>
      <path id="Path_1120" data-name="Path 1120" d="M335.084,180.912c0,.256-.005.51-.01.756,8.686-2.916,10.37-7.3,10.37-7.3-2.71,1.916-10.382,4.476-10.382,4.476C335.079,179.476,335.088,180.2,335.084,180.912Z" transform="translate(198.855 58.45)" fill="#997761"/>
      <g id="Group_121" data-name="Group 121" transform="translate(500.156 284.428)">
        <path id="Path_1121" data-name="Path 1121" d="M376.925,233.318,333.885,262.31l-18.608-27.627,42.314-30.069Z" transform="translate(-315.277 -204.614)" fill="#ffbe55" opacity="0.9"/>
        <path id="Path_1122" data-name="Path 1122" d="M372.027,232,333.8,257.747,317.273,233.21l37.584-26.705Z" transform="translate(-313.867 -203.278)" fill="#f7f7f7"/>
        <path id="Path_1123" data-name="Path 1123" d="M348.681,222.22l2.682-1.805-6.682-9.916-2.944,1.416Z" transform="translate(-296.585 -200.457)" fill="#0b4870"/>
      </g>
      <path id="Path_1124" data-name="Path 1124" d="M338.067,240.065a5.063,5.063,0,0,1-1.251-1.043s-.473-.884-.845-1.483c-.119-.193-.229-.353-.307-.457a9.357,9.357,0,0,1-1.734-2.437c-.532-1.217-1.974-5.706-1.974-5.706l3.611-1.909,2.824-1.539s6.348,3.682,6.972,4.763a3.291,3.291,0,0,1,.162.317,11.43,11.43,0,0,1,.539,2.4c.067.2.556,2.186.191,2.676a1.977,1.977,0,0,1-1.71.92,4.8,4.8,0,0,1-2.143,1.529,2.985,2.985,0,0,1-2.374,1.119S338.954,240.352,338.067,240.065Z" transform="translate(196.661 94.562)" fill="#eea886"/>
      <g id="Group_122" data-name="Group 122" transform="translate(500.076 250.435)">
        <path id="Path_1125" data-name="Path 1125" d="M344.29,260.483s-25.033-17.165-28.35-22.659c-1.538-2.543-.208-9.281.551-15.144.249-1.93.568-3.9.92-5.815,0,0,0-.007,0-.007,1.394-7.648,3.28-14.435,3.28-14.435s1.607-20.1,13.868-17.5c0,0,3.247,3.116,4.042,5.812.817,2.77-3.351,14.588-4.123,16.651s-6.889,22.233-6.715,23,6.885,7.892,10.088,11.078c5.962,5.93,14.168,14.148,14.168,14.148Z" transform="translate(-315.23 -184.693)" fill="#0b4870"/>
      </g>
    </g>
  </g>
</svg>
